<svg width="142" height="16" viewBox="0 0 142 16" fill="none" xmlns="http://www.w3.org/2000/svg">
<path d="M5.94727 0.967773H9.20801L14.8477 16H11.71L10.459 12.4111H4.69629L3.44531 16H0.307617L5.94727 0.967773ZM9.53613 9.80664L8.20312 6.0332L7.66992 4.22852H7.50586L6.95215 6.0332L5.59863 9.80664H9.53613ZM16.8779 0.967773H20.1797L26.2295 11.0371H26.3936L26.2295 8.14551V0.967773H29.0391V16H26.0449L19.667 5.35645H19.5029L19.667 8.24805V16H16.8779V0.967773ZM32.4639 0.967773H37.7549C38.6982 0.967773 39.5664 1.16602 40.3594 1.5625C41.125 1.94531 41.7402 2.50586 42.2051 3.24414C42.6562 3.95508 42.8818 4.77539 42.8818 5.70508C42.8818 6.63477 42.6562 7.46191 42.2051 8.18652C41.7266 8.93848 41.1113 9.50586 40.3594 9.88867C39.5664 10.2852 38.6982 10.4834 37.7549 10.4834H35.2939V16H32.4639V0.967773ZM37.8369 7.79688C38.5479 7.79688 39.0947 7.5918 39.4775 7.18164C39.8877 6.74414 40.0928 6.25195 40.0928 5.70508C40.0928 5.14453 39.8877 4.65918 39.4775 4.24902C39.0811 3.85254 38.5342 3.6543 37.8369 3.6543H35.2939V7.79688H37.8369ZM45.2607 0.967773H48.0908V6.97656H54.4072V0.967773H57.2578V16H54.4072V9.66309H48.0908V16H45.2607V0.967773ZM64.9072 0.967773H68.168L73.8076 16H70.6699L69.4189 12.4111H63.6562L62.4053 16H59.2676L64.9072 0.967773ZM68.4961 9.80664L67.1631 6.0332L66.6299 4.22852H66.4658L65.9121 6.0332L64.5586 9.80664H68.4961ZM77.499 3.6543H73.3154V0.967773H84.5332V3.6543H80.3496V16H77.499V3.6543ZM86.8096 0.967773H89.6396V13.3135H95.9971V16H86.8096V0.967773ZM102.601 0.967773H105.861L111.501 16H108.363L107.112 12.4111H101.35L100.099 16H96.9609L102.601 0.967773ZM106.189 9.80664L104.856 6.0332L104.323 4.22852H104.159L103.605 6.0332L102.252 9.80664H106.189ZM113.531 0.967773H116.833L122.883 11.0371H123.047L122.883 8.14551V0.967773H125.692V16H122.698L116.32 5.35645H116.156L116.32 8.24805V16H113.531V0.967773ZM129.117 0.967773H134.203C135.762 0.967773 137.122 1.28223 138.284 1.91113C139.446 2.55371 140.349 3.43555 140.991 4.55664C141.62 5.67773 141.935 6.9834 141.935 8.47363C141.935 9.97754 141.62 11.29 140.991 12.4111C140.349 13.5459 139.446 14.4277 138.284 15.0566C137.122 15.6855 135.762 16 134.203 16H129.117V0.967773ZM134.08 13.3135C135.693 13.3135 136.931 12.8828 137.792 12.0215C138.64 11.1738 139.063 9.99121 139.063 8.47363C139.063 6.96973 138.64 5.79395 137.792 4.94629C136.931 4.08496 135.693 3.6543 134.08 3.6543H131.947V13.3135H134.08Z" fill="#172B74"/>
</svg>
