<svg width="47" height="44" fill="none" xmlns="http://www.w3.org/2000/svg"><path d="M8 24h3c3.284 0 6.3 1.462 8 4h6c2.907 0 6 3.093 6 6H17" stroke="#2E71F2" stroke-width="3" stroke-miterlimit="10"/><path d="M29.176 30H39c4.833 0 6 4 6 4l-21.203 7.746a9.359 9.359 0 01-4.985-.18L8 37" stroke="#2E71F2" stroke-width="3" stroke-miterlimit="10"/><path d="M33 22a5 5 0 100-10 5 5 0 000 10zM19 12a5 5 0 100-10 5 5 0 000 10zM8 22H2v16h6V22z" stroke="#2E71F2" stroke-width="3" stroke-miterlimit="10" stroke-linecap="square"/></svg>