<svg width="16" height="16" fill="none" xmlns="http://www.w3.org/2000/svg"><path fill-rule="evenodd" clip-rule="evenodd" d="M7.993.379a7.63 7.63 0 100 15.258 7.63 7.63 0 000-15.258zm2.08 10.574c-.375.421-.917.669-1.626.743v1.08h-.903v-1.074c-1.182-.121-1.913-.809-2.195-2.06l1.397-.364c.13.787.557 1.18 1.285 1.18.34 0 .591-.084.751-.253a.853.853 0 00.24-.61c0-.246-.08-.434-.24-.56-.16-.128-.517-.289-1.069-.485-.496-.172-.884-.341-1.164-.511a1.923 1.923 0 01-.68-.706 2.095 2.095 0 01-.262-1.06c0-.528.156-1.004.467-1.426.311-.422.801-.68 1.47-.774v-.834h.903v.834c1.01.121 1.663.692 1.96 1.713l-1.244.51c-.243-.7-.617-1.05-1.126-1.05-.255 0-.46.078-.613.235a.78.78 0 00-.232.569c0 .227.074.401.223.523.148.121.468.271.956.451.536.196.957.38 1.262.555.305.174.548.416.73.722.182.307.274.666.274 1.076 0 .63-.189 1.156-.564 1.576z" fill="#00162E"/></svg>