<svg width="19" height="18" fill="none" xmlns="http://www.w3.org/2000/svg"><path d="M17.707 12.909c.27.27.406.6.406.986 0 .387-.136.716-.406.987l-1.974 1.973c-.27.27-.6.406-.986.406-.387 0-.716-.135-.987-.406l-4.265-4.266-4.266 4.266c-.27.27-.6.406-.987.406s-.715-.135-.986-.406l-1.973-1.973c-.271-.271-.407-.6-.407-.987s.136-.716.407-.986l4.265-4.266-4.265-4.266c-.271-.27-.407-.6-.407-.986 0-.387.136-.716.407-.987L3.256.431c.27-.271.6-.406.986-.406.387 0 .716.135.987.406l4.266 4.265L13.76.431c.271-.271.6-.406.987-.406s.716.135.986.406l1.974 1.973c.27.27.406.6.406.987s-.136.715-.406.986L13.44 8.643l4.266 4.265z" fill="#00162E"/></svg>