<svg width="20" height="19" fill="none" xmlns="http://www.w3.org/2000/svg"><path fill-rule="evenodd" clip-rule="evenodd" d="M19.402 9.5c0 5.18-4.222 9.402-9.402 9.402C4.82 18.902.597 14.68.597 9.5.597 4.32 4.82.097 10 .097c5.18 0 9.402 4.223 9.402 9.403zm-1.315 0c0-4.466-3.637-8.087-8.087-8.087-4.45 0-8.087 3.637-8.087 8.087 0 4.45 3.621 8.087 8.087 8.087A8.088 8.088 0 0018.087 9.5z" fill="#D81221"/><path d="M5.664 10.068h8.656a.659.659 0 00.665-.665.659.659 0 00-.665-.666H5.664a.659.659 0 00-.666.666c0 .373.309.665.666.665z" fill="#D81221"/></svg>