<svg width="20" height="20" fill="none" xmlns="http://www.w3.org/2000/svg"><mask id="a" maskUnits="userSpaceOnUse" x="0" y="0" width="12" height="20"><path fill-rule="evenodd" clip-rule="evenodd" d="M5.909 0H.002v20h11.813V0H5.909z" fill="#fff"/></mask><g mask="url(#a)" fill-rule="evenodd" clip-rule="evenodd" fill="#fff"><path d="M.59 5.899h10.634c.541 0 .797-.668.393-1.024L6.3.148a.592.592 0 00-.785 0L.198 4.875c-.404.356-.148 1.024.393 1.024zm1.773 9.414h1.182V14.14H2.363v1.172zm3.544-7.07a2.356 2.356 0 012.363 2.343 2.356 2.356 0 01-2.363 2.344 2.356 2.356 0 01-2.362-2.344 2.356 2.356 0 012.362-2.344zm2.363 7.07h1.182V14.14H8.27v1.172zm-3.544 0h2.363V14.14H4.726v1.172zm0 2.343h2.363v-1.171H4.726v1.171zM.591 20h1.181a.588.588 0 00.591-.586v-2.93h1.182v2.93c0 .324.264.586.59.586a.588.588 0 00.591-.586v-.586h2.363v.586c0 .324.264.586.59.586a.588.588 0 00.591-.586v-2.93h1.182v2.93c0 .324.264.586.59.586h1.182c.327 0 .59-.262.59-.586a.588.588 0 00-.59-.586h-.59V7.071H1.181v11.757H.59a.588.588 0 00-.591.586c0 .324.264.586.59.586z"/></g><path fill-rule="evenodd" clip-rule="evenodd" d="M18.842 17.725H16.8c-.464 0-.882-.27-1.064-.689l-1.278-4.105a3.458 3.458 0 00-2.639-2.022v2.284c.316.098.58.363.714.672l1.58 4.756a2.315 2.315 0 002.128 1.38h2.602A1.15 1.15 0 0020 18.862a1.15 1.15 0 00-1.158-1.138z" fill="#fff"/></svg>