<svg width="14" height="19" fill="none" xmlns="http://www.w3.org/2000/svg"><path d="M7 14.167c.916 0 1.666-.75 1.666-1.667S7.916 10.833 7 10.833c-.917 0-1.667.75-1.667 1.667s.75 1.667 1.667 1.667zm5-7.5h-.834V5C11.166 2.7 9.3.833 7 .833A4.168 4.168 0 002.833 5v1.667H2c-.917 0-1.667.75-1.667 1.666v8.334c0 .916.75 1.666 1.667 1.666h10c.916 0 1.666-.75 1.666-1.666V8.333c0-.916-.75-1.666-1.666-1.666zM4.416 5A2.586 2.586 0 017 2.417 2.586 2.586 0 019.583 5v1.667H4.416V5zM12 16.667H2V8.333h10v8.334z" fill="#111"/></svg>