<svg width="22" height="21" fill="none" xmlns="http://www.w3.org/2000/svg"><mask id="a" maskUnits="userSpaceOnUse" x="0" y="0" width="22" height="12"><path fill-rule="evenodd" clip-rule="evenodd" d="M.003 11.425V.029H22v11.396H.003z" fill="#fff"/></mask><g mask="url(#a)"><path fill-rule="evenodd" clip-rule="evenodd" d="M19.25.03H2.75C1.234.03 0 1.307 0 2.877v5.698c0 1.57 1.234 2.849 2.75 2.849h16.5c1.516 0 2.75-1.278 2.75-2.85V2.879C22 1.308 20.766.03 19.25.03zm-1.833 8.546H4.583c-.507 0-.916-.426-.916-.95s.41-.95.916-.95h12.834c.507 0 .916.426.916.95s-.41.95-.916.95z" fill="#fff"/></g><path fill-rule="evenodd" clip-rule="evenodd" d="M11.872 15.224a1.062 1.062 0 01-.28-.181c.044-.043.129-.108.28-.18.46-.225.64-.756.402-1.187-.239-.432-.803-.6-1.266-.377-.844.41-1.328 1.046-1.328 1.744s.484 1.333 1.328 1.743c.285.138.315.365.315.456 0 .092-.03.319-.315.457-.46.223-.64.754-.401 1.186a.95.95 0 00.834.475.989.989 0 00.43-.099c.82-.398 1.329-1.171 1.329-2.019 0-.846-.509-1.62-1.328-2.018zm-5.245.88a1.081 1.081 0 01-.284-.182 1.11 1.11 0 01.284-.18c.468-.225.651-.755.409-1.186-.243-.431-.816-.6-1.286-.378-.858.411-1.35 1.046-1.35 1.744 0 .699.492 1.334 1.35 1.744.174.084.262.21.262.379 0 .17-.1.4-.381.534-.468.223-.651.754-.409 1.186.17.302.503.475.848.475.147 0 .298-.032.438-.098.871-.417 1.412-1.22 1.412-2.097 0-.828-.483-1.554-1.293-1.942zm9.645 0a1.06 1.06 0 01-.28-.182c.044-.042.129-.107.28-.18.46-.225.64-.755.402-1.186-.239-.431-.804-.6-1.266-.378-.844.411-1.328 1.046-1.328 1.744 0 .699.484 1.334 1.328 1.744.285.138.315.365.315.456 0 .092-.03.319-.315.457-.46.223-.64.754-.401 1.186a.949.949 0 00.834.475.989.989 0 00.43-.098c.82-.4 1.329-1.173 1.329-2.02 0-.846-.509-1.62-1.328-2.018z" fill="#fff"/></svg>