<svg width="19" height="18" fill="none" xmlns="http://www.w3.org/2000/svg"><path d="M14.286 15.857a.72.72 0 01-.715.714.72.72 0 01-.714-.714.72.72 0 01.714-.714.72.72 0 01.715.714zm2.857 0a.72.72 0 01-.714.714.72.72 0 01-.715-.714.72.72 0 01.715-.714.72.72 0 01.714.714zm1.428-2.5c0-.591-.48-1.071-1.071-1.071h-5.179l-1.517 1.518a2.165 2.165 0 01-1.518.625c-.57 0-1.105-.224-1.518-.625L6.26 12.286H1.07c-.591 0-1.071.48-1.071 1.071v3.572A1.073 1.073 0 001.071 18H17.5c.591 0 1.071-.48 1.071-1.071v-3.572zm-3.627-6.35a.723.723 0 00-.658-.436h-2.857v-5a.72.72 0 00-.715-.714H7.857a.72.72 0 00-.714.714v5H4.286a.723.723 0 00-.659.436.702.702 0 00.156.781l5 5a.684.684 0 00.503.212.684.684 0 00.502-.212l5-5a.702.702 0 00.156-.781z" fill="#00162E"/></svg>