<svg width="34" height="32" fill="none" xmlns="http://www.w3.org/2000/svg"><path d="M29.1 11.345c.541 1.493.837 3.103.837 4.78 0 7.754-6.308 14.063-14.062 14.063S1.812 23.878 1.812 16.124c0-7.754 6.309-14.063 14.063-14.063 3.197 0 6.146 1.075 8.511 2.879l.859-.756a15.107 15.107 0 00-9.37-3.247C7.5.938.687 7.75.687 16.124c0 8.375 6.813 15.188 15.188 15.188S31.063 24.5 31.063 16.124c0-2.004-.394-3.917-1.102-5.67l-.861.89z" fill="#fff"/><path d="M31.063 2.063L17 14.437l-6.188-4.5-2.25 2.25L17 20.626 33.313 3.75l-2.25-1.688z" fill="#fff"/></svg>