<svg width="16" height="16" fill="none" xmlns="http://www.w3.org/2000/svg"><path d="M8 .25C3.625.25.25 3.469.25 7.781c0 2.25.906 4.219 2.438 5.563.25.25.187.375.25 1.812 0 .344.28.594.624.594.063 0 .157 0 .25-.031C5.438 15 5.47 14.938 5.75 15c4.781 1.313 10-1.75 10-7.219C15.75 3.47 12.375.25 8 .25zm4.656 5.813l-2.281 3.593a1.104 1.104 0 01-.969.563c-.281 0-.5-.094-.719-.25L6.875 8.625c-.063-.063-.156-.094-.281-.094a.504.504 0 00-.282.094l-2.437 1.844c-.344.25-.75-.156-.531-.5l2.281-3.594c.188-.344.563-.563.969-.563.281 0 .531.094.718.25l1.813 1.344c.063.063.156.094.281.094a.504.504 0 00.281-.094l2.438-1.843c.344-.25.75.156.531.5z" fill="#F9F9F9"/></svg>