<svg width="16" height="16" fill="none" xmlns="http://www.w3.org/2000/svg"><g clip-path="url(#clip0)" fill="#fff"><path d="M14.563 7.508a.328.328 0 00-.329-.328H1.766a.328.328 0 00-.329.328v6.07a2.297 2.297 0 002.297 2.297h8.532a2.297 2.297 0 002.296-2.297v-6.07zm.656-2.298a.984.984 0 00-.985-.983h-2.46a.328.328 0 01-.329-.329V3.57a3.445 3.445 0 00-6.89 0v.328a.328.328 0 01-.328.329H1.766a.984.984 0 100 1.968h12.468a.984.984 0 00.985-.984zM6.195 3.57a1.805 1.805 0 013.61 0v.328a.328.328 0 01-.328.329H6.523a.328.328 0 01-.328-.329V3.57z"/></g><defs><clipPath id="clip0"><path fill="#fff" transform="translate(.125 .125)" d="M0 0h15.75v15.75H0z"/></clipPath></defs></svg>