<svg width="48" height="49" fill="none" xmlns="http://www.w3.org/2000/svg"><path fill-rule="evenodd" clip-rule="evenodd" d="M44.39 12.744c-2.129-3.644-5.014-6.529-8.66-8.656C32.087 1.96 28.107.896 23.791.896c-4.317 0-8.297 1.064-11.941 3.192C8.204 6.213 5.318 9.1 3.19 12.744 1.064 16.39 0 20.371 0 24.687 0 29 1.064 32.98 3.191 36.627c2.127 3.645 5.013 6.531 8.657 8.657 3.646 2.127 7.626 3.191 11.942 3.191 4.317 0 8.297-1.064 11.941-3.191 3.644-2.126 6.53-5.012 8.658-8.657 2.126-3.646 3.19-7.626 3.19-11.94 0-4.317-1.064-8.299-3.19-11.943zM35.683 26.39l-16.85 9.913c-.31.186-.641.279-.992.279-.33 0-.66-.083-.991-.249-.661-.391-.991-.969-.991-1.734V14.773c0-.763.33-1.342.99-1.734.682-.37 1.343-.362 1.984.03l16.85 9.914c.662.37.992.94.992 1.704 0 .762-.33 1.33-.992 1.702z" fill="#fff"/></svg>