<svg width="27" height="19" fill="none" xmlns="http://www.w3.org/2000/svg"><path fill-rule="evenodd" clip-rule="evenodd" d="M23.755 6.026l-.053-.062-.886-.919c.734-.179 1.527-.843 1.527-1.52 0-.795-1.022-1.074-1.896-1.074-.91 0-1.017.672-1.03 1.147L19.13 1.226c-.465-.493-1.35-.884-2.007-.884H8.2c-.658 0-1.541.39-2.005.884l-2.29 2.372c-.012-.475-.118-1.147-1.03-1.147-.875 0-1.897.28-1.897 1.073 0 .678.792 1.342 1.53 1.521l-.889.919c-.02.021-.033.04-.05.062C.62 6.9 0 8.515 0 9.688v3.486a3.3 3.3 0 00.813 2.185v1.352c0 .792.615 1.434 1.373 1.434h1.662c.758 0 1.373-.642 1.373-1.434v-.347h14.882v.347c0 .792.615 1.434 1.373 1.434h1.66c.76 0 1.375-.642 1.375-1.434v-1.352a3.3 3.3 0 00.813-2.185V9.688c0-1.173-.62-2.789-1.57-3.662zM7.036 2.28c.323-.29.886-.506 1.165-.506h8.922c.28 0 .843.216 1.166.506l3.003 3.125H4.032L7.037 2.28zM1.03 9.16c0-.86.625-1.556 1.398-1.556.772 0 3.293 1.59 3.293 2.45 0 .857-2.521.659-3.293.659-.773 0-1.398-.694-1.398-1.554zm4.191 5.675H4.69l-1.58.003c-.436-.146-.747-.317-.964-.502a1.334 1.334 0 01-.262-.284 1.023 1.023 0 01-.146-.287c-.197-.596.209-1.144.209-1.144H4.64l1.796 2.214H5.221zm11.316.003h-7.75c-.807 0-1.463-.705-1.463-1.572H18c0 .867-.656 1.572-1.464 1.572zm.34-2.645h-8.43c-.879 0-1.593-1.163-1.593-2.597h11.614c0 1.434-.712 2.597-1.59 2.597zm6.711 1.572c-.03.095-.08.192-.146.287a1.397 1.397 0 01-.263.287c-.217.182-.527.356-.964.502l-1.58-.003h-1.749l1.798-2.217h2.695s.406.548.21 1.144zm-.692-3.052c-.772 0-3.293.198-3.293-.66 0-.858 2.521-2.45 3.293-2.45.773 0 1.398.697 1.398 1.556 0 .86-.625 1.554-1.398 1.554z" fill="#fff"/></svg>