<svg width="21" height="23" fill="none" xmlns="http://www.w3.org/2000/svg"><path fill-rule="evenodd" clip-rule="evenodd" d="M10.206 12.127v.888c0 .306-.16.596-.432.736a.8.8 0 01-.935-.145l-.581-.581-.547.546L9.07 14.93a.797.797 0 01.234.566v5.917c0 .388.315.703.704.703h1.171a.704.704 0 00.704-.703v-5.027c0-.214.083-.415.234-.567l1.126-1.125-.547-.546-.349.349a.799.799 0 01-.934.145.821.821 0 01-.433-.735v-1.779h-.773z" fill="#fff"/><path fill-rule="evenodd" clip-rule="evenodd" d="M20.953 9.122a4.918 4.918 0 00-4.538-4.897A6.298 6.298 0 0010.476.037a6.299 6.299 0 00-5.939 4.188A4.918 4.918 0 000 9.122c0 1.318.522 2.563 1.447 3.482a4.32 4.32 0 004.26 5.007H8.27v-2.02l-1.453-1.453a.794.794 0 01-.235-.567c0-.213.084-.415.235-.566l.875-.875a.802.802 0 011.132 0l.35.35v-.585c0-.441.359-.8.8-.8h1.237a.8.8 0 01.8.8v1.474l.118-.117a.796.796 0 01.566-.234c.214 0 .415.083.566.234l.875.875a.802.802 0 010 1.133l-1.221 1.22v1.131h2.331a4.32 4.32 0 004.26-5.007 4.894 4.894 0 001.447-3.482z" fill="#fff"/></svg>