<svg width="20" height="14" fill="none" xmlns="http://www.w3.org/2000/svg"><path fill-rule="evenodd" clip-rule="evenodd" d="M18.135 12.285H1.718a.23.23 0 01-.227-.228v-9.69l8.062 5.277a.683.683 0 00.752-.003l8.057-5.376v9.792a.23.23 0 01-.227.228zM16.692 1.739l-6.77 4.518-6.901-4.518h13.67zm2.406-.925a.677.677 0 00-.313-.227 1.572 1.572 0 00-.777-.212H1.59C.714.375 0 1.09 0 1.966v10.091c0 .878.714 1.591 1.59 1.591h16.418c.877 0 1.59-.713 1.59-1.59V1.965c0-.454-.194-.861-.5-1.152z" fill="#1A1919"/></svg>