<svg width="20" height="20" fill="none" xmlns="http://www.w3.org/2000/svg"><path fill="#fff" fill-opacity=".01" d="M0 0h20v20H0z"/><mask id="a" maskUnits="userSpaceOnUse" x="1" y="1" width="18" height="18"><path fill-rule="evenodd" clip-rule="evenodd" d="M5 5h1.667v-.833h6.667V5H15v-.833h1.667v2.5H3.334v-2.5H5V5zM3.334 8.333v8.334h13.333V8.333H3.334zM6.667 2.5h6.667v-.833H15V2.5h1.667c.92 0 1.667.746 1.667 1.667v12.5c0 .92-.747 1.666-1.667 1.666H3.334c-.92 0-1.667-.746-1.667-1.666v-12.5c0-.92.746-1.667 1.667-1.667H5v-.833h1.667V2.5z" fill="#fff"/></mask><g mask="url(#a)"><path fill="#000" d="M0 0h20v20H0z"/></g></svg>