<svg width="27" height="24" fill="none" xmlns="http://www.w3.org/2000/svg"><path fill-rule="evenodd" clip-rule="evenodd" d="M18.148 9.391H1.026c-.314 0-.618.131-.81.37a.952.952 0 00-.137.983l.184.692c.05.184.22.313.415.313h5.897c.428 0 .796.32.816.735a.783.783 0 01-.794.81H1.723c-.363 0-.56.41-.33.684a4.705 4.705 0 003.6 1.674h9.189c.046 0 .092 0 .139-.002 2.057-.056 3.86-1.47 4.383-3.437l.39-1.469a.952.952 0 00-.135-.982 1.038 1.038 0 00-.81-.37zM5.325 6.086l-.44.993a.813.813 0 00.396 1.067.776.776 0 00.325.071.79.79 0 00.722-.475l.44-.992a3.23 3.23 0 00-.496-3.4 1.579 1.579 0 01-.157-1.843l.168-.28a.815.815 0 00-.265-1.11.784.784 0 00-1.088.27l-.168.281a3.21 3.21 0 00.318 3.745c.396.46.492 1.116.245 1.673zm3.521 0l-.44.993a.813.813 0 00.396 1.067.776.776 0 00.326.071.79.79 0 00.722-.475l.44-.992a3.23 3.23 0 00-.497-3.4 1.579 1.579 0 01-.156-1.843l.168-.28A.815.815 0 009.54.116a.784.784 0 00-1.088.27l-.168.281a3.21 3.21 0 00.318 3.745 1.59 1.59 0 01.244 1.673zm3.522 0l-.44.993a.813.813 0 00.396 1.067.776.776 0 00.325.071c.302 0 .59-.176.723-.475l.44-.992a3.23 3.23 0 00-.497-3.4 1.579 1.579 0 01-.156-1.843l.167-.28a.815.815 0 00-.264-1.11.784.784 0 00-1.088.27l-.168.281a3.21 3.21 0 00.318 3.745 1.59 1.59 0 01.244 1.673zm13.815 5.262h-5.484a.69.69 0 00-.67.512l-.047.18-.002.01a.687.687 0 00.667.863h5.56c.45 0 .812-.37.792-.818-.019-.422-.388-.747-.816-.747zM16.824 22.23h-1.092c.422-.352.654-.842.654-1.415 0-1.149-.983-2.544-1.569-3.273a.855.855 0 00-.667-.325.855.855 0 00-.667.325c-.586.73-1.57 2.124-1.57 3.273 0 .573.233 1.063.655 1.415H10.76c.422-.352.654-.842.654-1.415 0-1.149-.983-2.544-1.569-3.273a.855.855 0 00-.667-.325.855.855 0 00-.667.325c-.586.73-1.57 2.124-1.57 3.273 0 .573.233 1.063.654 1.415H5.88c.421-.352.653-.842.653-1.415 0-1.149-.982-2.544-1.568-3.273a.855.855 0 00-.668-.325.855.855 0 00-.667.325c-.586.73-1.569 2.124-1.569 3.273 0 .573.233 1.063.654 1.415H1.567c-.433 0-.784.367-.784.82 0 .453.35.82.784.82h15.257c.433 0 .785-.367.785-.82 0-.453-.352-.82-.785-.82z" fill="#fff"/></svg>