<svg width="16" height="16" fill="none" xmlns="http://www.w3.org/2000/svg"><path fill-rule="evenodd" clip-rule="evenodd" d="M8 12.555l-2.219-1.872-4.614 4.772h13.665l-4.613-4.772L8 12.555z" fill="#0A0B09"/><mask id="a" maskUnits="userSpaceOnUse" x="0" y="6" width="16" height="9"><path fill-rule="evenodd" clip-rule="evenodd" d="M.547 14.841V6.266h14.907v8.575H.547z" fill="#fff"/></mask><g mask="url(#a)" fill-rule="evenodd" clip-rule="evenodd" fill="#00162E"><path d="M10.888 10.119l4.566 4.722V6.266l-4.566 3.853zM.545 6.266v8.575l4.567-4.722L.545 6.266z"/></g><path fill-rule="evenodd" clip-rule="evenodd" d="M5.463 7.013h5.074v-.874H5.463v.874zm0-2.09h5.074V4.05H5.463v.874zm0-2.088h5.074V1.96H5.463v.874zM13.05 7.15V.545H2.949v6.606L8 11.412l5.05-4.261zM2.075 4.569L.982 5.49l1.093.923V4.569zm11.85 0v1.845l1.093-.923-1.093-.922z" fill="#00162E"/></svg>