<svg width="18" height="17" fill="none" xmlns="http://www.w3.org/2000/svg"><path d="M9.442 16.105a.601.601 0 01-.442.18.601.601 0 01-.442-.18L2.29 10.058a3.768 3.768 0 01-.281-.261c-.114-.12-.298-.338-.553-.653a9.274 9.274 0 01-.683-.984c-.2-.335-.381-.74-.542-1.216A4.487 4.487 0 010 5.558c0-1.473.425-2.625 1.276-3.455C2.126 1.273 3.3.857 4.8.857c.416 0 .837.074 1.266.221.435.14.837.335 1.205.583.375.24.697.468.965.683.267.214.522.442.763.683.241-.241.496-.469.763-.683.268-.215.586-.442.955-.683a5.01 5.01 0 011.205-.583 3.97 3.97 0 011.276-.22c1.5 0 2.675.414 3.525 1.245.85.83 1.276 1.982 1.276 3.455 0 1.48-.767 2.987-2.3 4.52l-6.258 6.027z" fill="#FF0085"/></svg>