<svg width="16" height="13" fill="none" xmlns="http://www.w3.org/2000/svg"><path d="M15.429 11.071v1.286a.618.618 0 01-.191.452.618.618 0 01-.452.191H.643a.618.618 0 01-.452-.19.618.618 0 01-.191-.453v-1.286c0-.174.064-.324.19-.452a.618.618 0 01.453-.19h14.143c.174 0 .325.063.452.19a.62.62 0 01.19.452zm0-5.142v1.285a.618.618 0 01-.191.452.618.618 0 01-.452.191H.643a.618.618 0 01-.452-.19A.618.618 0 010 7.213V5.93a.62.62 0 01.19-.452.618.618 0 01.453-.191h14.143c.174 0 .325.063.452.19a.62.62 0 01.19.453zm0-5.143V2.07a.618.618 0 01-.191.452.618.618 0 01-.452.191H.643a.618.618 0 01-.452-.19A.618.618 0 010 2.07V.786A.62.62 0 01.19.334.618.618 0 01.644.143h14.143c.174 0 .325.063.452.19.127.128.19.279.19.453z" fill="#172B74"/></svg>