<svg width="18" height="19" fill="none" xmlns="http://www.w3.org/2000/svg"><path d="M9 17.768c.107 0 .16-.054.16-.16 0-.108-.053-.162-.16-.162a1.4 1.4 0 01-1.025-.431A1.383 1.383 0 017.554 16c0-.107-.054-.16-.161-.16-.107 0-.16.053-.16.16 0 .489.17.904.511 1.245.349.349.767.523 1.256.523zm8.357-3.054c0 .348-.127.65-.382.904a1.235 1.235 0 01-.904.382h-4.5c0 .71-.25 1.316-.753 1.818A2.478 2.478 0 019 18.571c-.71 0-1.316-.25-1.818-.753A2.478 2.478 0 016.429 16h-4.5c-.349 0-.65-.127-.904-.382a1.236 1.236 0 01-.382-.904c.335-.281.64-.576.914-.884a8.07 8.07 0 00.854-1.195 8.93 8.93 0 00.743-1.597c.208-.57.375-1.259.502-2.07.134-.81.201-1.68.201-2.61 0-1.019.392-1.963 1.175-2.833.784-.878 1.812-1.41 3.084-1.598a1 1 0 01-.08-.391.93.93 0 01.281-.683A.93.93 0 019 .57a.93.93 0 01.683.282.93.93 0 01.281.683 1 1 0 01-.08.391c1.272.188 2.3.72 3.084 1.598.783.87 1.175 1.814 1.175 2.832 0 .931.063 1.801.19 2.612.135.81.302 1.5.503 2.069a9.45 9.45 0 00.753 1.597c.295.489.58.887.854 1.195.275.308.58.603.914.884z" fill="#fff"/></svg>