<svg width="22" height="16" fill="none" xmlns="http://www.w3.org/2000/svg"><path fill-rule="evenodd" clip-rule="evenodd" d="M1.29 5.28V3.96h5.8a.652.652 0 00.644-.66.652.652 0 00-.644-.66h-5.8v-.66c0-.364.288-.66.644-.66h18.132c.356 0 .645.296.645.66v.66h-5.8a.652.652 0 00-.645.66c0 .365.288.66.644.66h5.8v1.32H1.29zm2.577 2.64h14.266V6.6H3.867v1.32zM20.711 9.9v.66H1.289V9.9c0-.364.29-.66.645-.66h18.132c.356 0 .645.296.645.66zM20.066 0H1.934C.867 0 0 .888 0 1.98v3.96c0 .364.289.66.645.66h1.933v1.32h-.644C.867 7.92 0 8.808 0 9.9v1.32c0 .364.289.66.645.66h.644v2.64H.645a.652.652 0 00-.645.66c0 .364.289.66.645.66h2.578a.652.652 0 00.644-.66.652.652 0 00-.644-.66h-.645v-2.64h16.844v2.64h-.645a.652.652 0 00-.644.66c0 .364.288.66.644.66h2.578a.652.652 0 00.645-.66.652.652 0 00-.645-.66h-.644v-2.64h.645a.652.652 0 00.644-.66V9.9c0-1.092-.867-1.98-1.934-1.98h-.644V6.6h1.933A.652.652 0 0022 5.94V1.98C22 .888 21.133 0 20.066 0z" fill="#fff"/></svg>