<svg width="22" height="30" fill="none" xmlns="http://www.w3.org/2000/svg"><path d="M11.008 0c-5.33 0-9.644 4.337-9.644 9.668V13.3a2.613 2.613 0 002.613 2.636h1.477c1.04 2.142 3.143 3.516 5.554 3.516 2.41 0 4.515-1.374 5.555-3.515h1.477c.139 0 .272-.02.405-.041-1.08 3.083-3.989 5.314-7.437 5.314-1.158 0-1.163 1.758 0 1.758 5.331 0 9.668-4.337 9.668-9.668V9.668C20.676 4.337 16.34 0 11.008 0zm5.537 7.043c.007.013.009.027.015.04-.985 2.072-3.093 3.464-5.552 3.464H4.856v-.88c0-.302.057-.588.1-.878h6.052a4.378 4.378 0 004.307-3.48 6.088 6.088 0 00-4.307-1.793 6.126 6.126 0 00-5.537 3.527c-.434 0-1.508-.032-1.9.029 1.08-3.083 3.99-5.314 7.437-5.314 3.448 0 6.357 2.23 7.437 5.314-.392-.06-1.465-.029-1.9-.029z" fill="#172B74"/><path d="M19.217 21.457l-.158-.07a11.359 11.359 0 01-8.051 3.34c-2.075 0-3.28-2.29-2.303-3.868a7.65 7.65 0 01-2.215-1.09l-3.62 1.653c-1.424.474-2.268 1.986-1.9 3.392l.862 4.483c.088.404.44.703.862.703h16.61a.884.884 0 00.862-.703l.862-4.43c.369-1.459-.457-2.97-1.811-3.41z" fill="#172B74"/></svg>