<svg width="18" height="12" fill="none" xmlns="http://www.w3.org/2000/svg"><path fill-rule="evenodd" clip-rule="evenodd" d="M16.111 1.032C15.508.548 14.825 0 13.501 0c-1.325 0-2.009.548-2.612 1.032-.538.431-.963.772-1.889.772-.925 0-1.35-.34-1.889-.772C6.508.548 5.825 0 4.501 0c-1.326 0-2.01.548-2.613 1.032-.538.431-.964.772-1.889.772v2.482c.925 0 1.35-.341 1.89-.773.602-.484 1.286-1.032 2.61-1.032 1.325 0 2.008.548 2.611 1.032.539.432.964.773 1.89.773.925 0 1.35-.341 1.888-.773.603-.484 1.287-1.032 2.611-1.032 1.325 0 2.008.548 2.611 1.032.538.432.964.773 1.889.773V1.805c-.925 0-1.35-.342-1.889-.773zM13.5 6.857c-.925 0-1.35.341-1.889.773-.603.484-1.286 1.032-2.61 1.032-1.325 0-2.009-.548-2.612-1.032-.538-.432-.963-.773-1.889-.773-.925 0-1.35.341-1.89.773-.602.484-1.285 1.032-2.61 1.032v2.48c1.325 0 2.008-.547 2.611-1.03.538-.433.964-.774 1.89-.774.925 0 1.35.341 1.888.773.603.484 1.287 1.032 2.611 1.032 1.325 0 2.008-.548 2.611-1.032.538-.432.964-.773 1.89-.773.925 0 1.35.341 1.888.773.603.484 1.287 1.032 2.611 1.032V8.662c-1.325 0-2.008-.548-2.61-1.032-.54-.432-.964-.773-1.89-.773z" fill="#fff"/><path fill-rule="evenodd" clip-rule="evenodd" d="M13.5 3.428c-.925 0-1.35.324-1.889.735-.603.46-1.286.98-2.61.98-1.325 0-2.009-.52-2.612-.98-.538-.41-.963-.735-1.889-.735-.925 0-1.35.324-1.89.735-.602.46-1.285.98-2.61.98v2.571c.925 0 1.35-.324 1.89-.734C2.491 6.52 3.175 6 4.5 6s2.008.52 2.611.98c.539.41.964.734 1.89.734.925 0 1.35-.324 1.888-.734.603-.46 1.287-.98 2.611-.98 1.325 0 2.008.52 2.611.98.538.41.964.734 1.889.734V5.143c-1.325 0-2.008-.52-2.61-.98-.54-.41-.964-.735-1.89-.735z" fill="#fff"/></svg>