<svg width="22" height="18" fill="none" xmlns="http://www.w3.org/2000/svg"><path d="M21.696 2.893a9.064 9.064 0 01-2.17 2.236 12.361 12.361 0 01-.495 4.045 12.47 12.47 0 01-1.553 3.322 13.071 13.071 0 01-2.465 2.825c-.955.813-2.107 1.465-3.455 1.956-1.348.482-2.79.723-4.326.723-2.42 0-4.634-.647-6.643-1.942.313.036.661.054 1.045.054 2.009 0 3.799-.616 5.37-1.849a4.24 4.24 0 01-2.517-.857 4.267 4.267 0 01-1.527-2.143c.294.045.567.067.817.067.384 0 .763-.049 1.138-.147-1-.205-1.83-.7-2.49-1.487a4.223 4.223 0 01-.979-2.758v-.054c.608.34 1.26.522 1.956.549a4.32 4.32 0 01-1.406-1.54 4.215 4.215 0 01-.523-2.063c0-.785.197-1.513.59-2.183A12.365 12.365 0 006 4.848a12.164 12.164 0 004.982 1.326 4.807 4.807 0 01-.107-.991c0-1.196.42-2.214 1.259-3.054.848-.848 1.87-1.272 3.067-1.272 1.25 0 2.303.456 3.16 1.366a8.482 8.482 0 002.746-1.044c-.33 1.026-.964 1.821-1.902 2.384a8.62 8.62 0 002.491-.67z" fill="#2379BC"/></svg>