<svg width="21" height="21" fill="none" xmlns="http://www.w3.org/2000/svg"><path d="M16.714.143c1.063 0 1.969.38 2.719 1.138.759.75 1.138 1.657 1.138 2.719v12.857c0 1.063-.379 1.969-1.138 2.719-.75.759-1.656 1.138-2.719 1.138h-2.518v-7.968h2.666l.401-3.108h-3.067V7.656c0-.5.103-.875.309-1.125.214-.25.624-.375 1.232-.375l1.633-.013V3.37c-.562-.08-1.357-.121-2.383-.121-1.215 0-2.188.357-2.92 1.071-.723.715-1.085 1.724-1.085 3.027v2.29H8.304v3.107h2.678v7.97H3.857c-1.062 0-1.973-.38-2.732-1.14A3.704 3.704 0 010 16.858V4c0-1.063.375-1.969 1.125-2.719C1.884.522 2.795.143 3.857.143h12.857z" fill="#325A9D"/></svg>