<svg width="28" height="28" fill="none" xmlns="http://www.w3.org/2000/svg"><path fill-rule="evenodd" clip-rule="evenodd" d="M7.074 7.077a1.074 1.074 0 11-2.148 0 1.074 1.074 0 012.148 0zm3.583 0a1.074 1.074 0 11-2.148 0 1.074 1.074 0 012.148 0z" fill="#00162E"/><mask id="a" maskUnits="userSpaceOnUse" x="0" y="0" width="28" height="28"><path fill-rule="evenodd" clip-rule="evenodd" d="M.004.134V28H27.96V.134H.004z" fill="#fff"/></mask><g mask="url(#a)" fill-rule="evenodd" clip-rule="evenodd" fill="#00162E"><path d="M14.24 7.077a1.074 1.074 0 11-2.148 0 1.074 1.074 0 012.148 0z"/><path d="M2.743.134h13.68a2.747 2.747 0 012.743 2.743v5.886H17.25V2.877a.83.83 0 00-.828-.829H2.743a.829.829 0 00-.829.829v8.291a.83.83 0 00.829.829h1.354v2.154l2.143-2.143v2.709L3.937 17.02a1.02 1.02 0 01-.725.303 1.024 1.024 0 01-1.03-1.03v-2.44A2.745 2.745 0 010 11.169V2.883A2.748 2.748 0 012.743.134z"/><path d="M25.903 10.654H10.092a2.068 2.068 0 00-2.07 2.068v9.583a2.07 2.07 0 002.07 2.069h11.29l3.538 3.537a.301.301 0 00.514-.211v-3.326h.457a2.068 2.068 0 002.07-2.069v-9.583a2.058 2.058 0 00-2.058-2.068zm-6.966 10.332c0 .142-.12.262-.263.262h-6.348a.266.266 0 01-.263-.262V19.94c0-.143.12-.263.263-.263h6.343c.142 0 .262.12.262.263v1.046h.006zm4.994-2.955c0 .143-.12.263-.262.263H12.326a.266.266 0 01-.263-.263v-1.045c0-.143.12-.264.263-.264h11.343c.142 0 .262.12.262.264v1.045zm0-2.948c0 .143-.12.262-.262.262H12.326a.266.266 0 01-.263-.262v-1.046c0-.143.12-.263.263-.263h11.343c.142 0 .262.12.262.263v1.046z"/></g></svg>