<svg width="21" height="22" fill="none" xmlns="http://www.w3.org/2000/svg"><path fill-rule="evenodd" clip-rule="evenodd" d="M1.12 6.215v7.227a9.499 9.499 0 014.175-3.349A10.004 10.004 0 017.23 9.51a10.331 10.331 0 012.562-.176V6.215c0-.494-.4-.893-.893-.893H2.014c-.493 0-.893.4-.893.893z" fill="#fff"/><path fill-rule="evenodd" clip-rule="evenodd" d="M18.158 17.794a1.995 1.995 0 01-.566-.558 7.826 7.826 0 01-.317-.512c.007.288 0 .514-.006.601-.03.402-.134.72-.322.974a1.517 1.517 0 01-.838.554l-.029.01-.011.001c-.262.07-.536.092-.802.114-.262.023-.51.043-.74.1a.775.775 0 01-.876-.38 4.301 4.301 0 00-.433-.607c-.257-.324-.523-.656-.63-1.072-.132-.507.011-1.003.422-1.47a2.18 2.18 0 01-.54.074 1.44 1.44 0 01-1.155-.54c-.224-.269-.364-.59-.498-.901a4.521 4.521 0 00-.333-.668.778.778 0 01.078-.952c.16-.174.295-.384.438-.605.29-.45.619-.961 1.213-1.126a1.44 1.44 0 01.384-.052c.145 0 .293.02.447.063a1.642 1.642 0 01-.114-.261 8.633 8.633 0 00-1.041-.356 10.018 10.018 0 00-2.679-.35c-2.5 0-5.062.958-6.907 2.98a9.718 9.718 0 00-1.18 1.62c-1.117 1.912-1.747 4.43-.05 6.056.33.315.727.525 1.156.525h13.963c1.606 0 2.133-1.573 2.1-3.188a1.289 1.289 0 01-.134-.074zM1.624 17.29c.151-.813.473-1.59.886-2.303a7.79 7.79 0 014.83-3.709 6.262 6.262 0 012.214-.187c.11.011.137.16.036.208 0 0-.002 0-.002.002-.181.085-.364.163-.545.248-.358.167-.713.344-1.06.534-.696.38-1.364.81-1.983 1.307a13.237 13.237 0 00-2.855 3.134 11.39 11.39 0 00-1.271 2.643c-.034.105-.184.107-.22.002v-.002c-.191-.588-.142-1.28-.03-1.877zm13.743-7.031h.005c.007 0 .009.006.01.009l.671 1.68.02.049a.275.275 0 00.25.17.263.263 0 00.23-.13c.351-.592.501-1.95.51-2.283.033-1.023-.646-1.15-1.365-1.285-.27-.05-.55-.102-.818-.203a.226.226 0 00-.076-.013.16.16 0 00-.058.009.216.216 0 00-.12.087c-.161.234-.362.438-.554.634-.365.373-.715.728-.666 1.2.011.114.047.232.11.36.042.087.1.178.171.274.038.05.099.126.177.22.346.406 1.036 1.13 1.546 1.36a.277.277 0 00.178.015.271.271 0 00.19-.322l-.004-.013-.11-.469-.31-1.33c.002-.008 0-.017.013-.02zm4.737 3.775c-.253-.073-1.149-.265-1.844-.265-.18 0-.346.013-.484.044a.256.256 0 00-.137.08.27.27 0 00.027.389l.367.304 1.065.887c.007.005.007.009.005.011a.023.023 0 01-.012.014h-.002c-.002 0-.004 0-.009-.003l-.86-.52-.44-.268-.29-.177a.262.262 0 00-.139-.04h-.004c-.023 0-.045.005-.067.01a.27.27 0 00-.197.287c.076.684.778 1.857.97 2.13.062.086.125.162.19.23.096.098.196.174.303.225a.804.804 0 00.286.08c.03.003.058.005.087.005.101 0 .208-.016.32-.047.219-.06.442-.172.677-.288.246-.123.5-.248.775-.33a.219.219 0 00.156-.22 4.999 4.999 0 01.06-.84c.09-.728.177-1.414-.803-1.698zm.77-3.587a.214.214 0 00-.156-.217 4.97 4.97 0 01-.775-.326c-.347-.17-.675-.331-.995-.331a.808.808 0 00-.23.031c-.232.065-.442.233-.636.514-.19.273-.885 1.45-.959 2.134a.268.268 0 00.407.256l1.586-.973c.002-.003.005-.003.005-.003h.002c.006 0 .01.01.01.01.005.008 0 .013-.004.015l-1.425 1.197a.269.269 0 00.114.467c.136.03.297.043.465.043.272 0 .563-.03.797-.063.478-.067.885-.16 1.035-.203.01-.002.022-.007.031-.01.98-.29.89-.975.79-1.7-.035-.276-.073-.558-.062-.841z" fill="#fff"/><path fill-rule="evenodd" clip-rule="evenodd" d="M12.595 11.34a.889.889 0 00-.235.031c-.39.11-.634.49-.893.892-.15.232-.304.471-.496.681a.222.222 0 00-.023.268c.157.24.268.498.38.753.246.565.48 1.106 1.142 1.106.123 0 .259-.018.415-.058l.031-.009c.15-.043.548-.17.99-.36.353-.152.83-.384 1.09-.634a.27.27 0 00.072-.273.269.269 0 00-.214-.185l-1.84-.288c-.006 0-.01-.003-.01-.012 0 0 0-.013.009-.015h.006l1.861.013h.003a.266.266 0 00.255-.183.262.262 0 00-.041-.246c-.415-.55-1.62-1.197-1.921-1.331a1.354 1.354 0 00-.581-.15zm4.356 2.52a.77.77 0 00.152-.554.755.755 0 00-.75-.664h-.005a.65.65 0 00-.091.007.754.754 0 00-.657.844.755.755 0 001.351.367z" fill="#fff"/><mask id="a" maskUnits="userSpaceOnUse" x="4" y="0" width="13" height="19"><path fill-rule="evenodd" clip-rule="evenodd" d="M16.721.024H4.107v18.525h12.614V.024z" fill="#fff"/></mask><g mask="url(#a)" fill-rule="evenodd" clip-rule="evenodd" fill="#fff"><path d="M14.14 18.435a.218.218 0 00.249.108c.275-.072.558-.094.833-.117.264-.022.512-.042.728-.102.485-.134.72-.454.762-1.035.025-.33.018-1.698-.27-2.323a.268.268 0 00-.317-.143.267.267 0 00-.166.134l-.864 1.649c-.002.006-.007.006-.007.006h-.002c-.005 0-.011-.002-.014-.006-.002-.003-.004-.005-.002-.014l.61-1.758a.267.267 0 00-.058-.272.264.264 0 00-.28-.072c-.652.217-1.652 1.148-1.878 1.392-.695.753-.264 1.293.192 1.865.172.215.348.438.485.688zM5.171 2.94a.307.307 0 01.55-.002c.196.395.446.96.552 1.476 1.126-.654.203-2.91-.407-4.128a.476.476 0 00-.851.002c-.594 1.213-1.49 3.452-.38 4.117.1-.513.344-1.072.536-1.465z"/></g></svg>