<svg width="36" height="32" fill="none" xmlns="http://www.w3.org/2000/svg"><path d="M33 15.51h-3.75a1.5 1.5 0 100 3h3.375a.375.375 0 01.375.374v9a.375.375 0 01-.375.375H3.375A.375.375 0 013 27.884v-9a.375.375 0 01.375-.375H8.25a1.5 1.5 0 000-3H3a3 3 0 00-3 3v9.75a3 3 0 003 3h30a3 3 0 003-3v-9.75a3 3 0 00-3-3z" fill="#fff"/><path d="M12.163 23.605a.75.75 0 00.28-.054l5.302-2.121a.788.788 0 00.255-.165L29.718 9.55a.75.75 0 000-1.06l-3.183-3.188a.77.77 0 00-1.06 0l-11.72 11.72a.75.75 0 00-.167.251l-2.12 5.304a.75.75 0 00.695 1.028zM30.779 7.421a.75.75 0 001.06 0l1.592-1.591a3 3 0 000-4.242 3.072 3.072 0 00-4.242 0L27.6 3.18a.75.75 0 000 1.06l3.178 3.18z" fill="#fff"/></svg>