<svg width="20" height="19" fill="none" xmlns="http://www.w3.org/2000/svg"><path fill-rule="evenodd" clip-rule="evenodd" d="M8.03 2.924A1.5 1.5 0 108.97.076a1.5 1.5 0 00-.94 2.848z" fill="#fff"/><path fill-rule="evenodd" clip-rule="evenodd" d="M19.34 17.645c-.33-.013-.653-.022-.97-.031-3.794-.11-6.301-.181-8.832-6.12a9.843 9.843 0 00-.404-.828.675.675 0 00.485-.815l-.575-2.253a.682.682 0 00-.451-.479l-1.144-.371.738-2.209 3.168.155a.683.683 0 00.687-.645.681.681 0 00-.653-.71l-3.554-.174a1.018 1.018 0 00-.236-.115c-.553-.18-1.113.153-1.252.534-.07.145-1.112 3.367-1.107 3.436-2.352-1.052-4.6-.8-4.637-.796-.377.046-.597.352-.597.755L0 18.322c0 .375.308.678.688.678.38 0 .688-.303.688-.678v-.85h2.882v.85c0 .374.308.678.688.678.38 0 .689-.304.689-.678v-9.56c1.009.669 1.967 1.692 2.634 3.257 2.874 6.743 6.205 6.839 10.061 6.95l.982.031a.683.683 0 00.687-.65.682.682 0 00-.66-.705zM1.376 12.727h2.882v-2.033H1.376v2.033zm0 3.39h2.882v-2.034H1.376v2.033zm2.882-6.779H1.376V7.54a8.232 8.232 0 012.882.524v1.274zM6.87 7.987l.933.303.187.734a7.94 7.94 0 00-1.12-1.037z" fill="#fff"/></svg>