<svg width="16" height="22" fill="none" xmlns="http://www.w3.org/2000/svg"><path fill-rule="evenodd" clip-rule="evenodd" d="M7.775 14.294A1.9 1.9 0 005.88 16.19v3.84a1.9 1.9 0 001.895 1.896 1.902 1.902 0 001.896-1.896v-3.84a1.9 1.9 0 00-1.896-1.896z" fill="#fff"/><path fill-rule="evenodd" clip-rule="evenodd" d="M14.648 2.678h-3.65A3.37 3.37 0 007.775.308a3.37 3.37 0 00-3.224 2.37H.95a.95.95 0 00-.949.95c0 .52.426.946.95.946H4.6c.236.806.756 1.47 1.467 1.896-2.558.76-4.456 3.13-4.456 5.926v4.98a1.58 1.58 0 001.565 1.564h1.28v-2.704a3.38 3.38 0 013.366-3.366 3.38 3.38 0 013.366 3.366v2.704h1.28a1.58 1.58 0 001.565-1.565v-4.93c0-2.796-1.897-5.215-4.457-5.927a3.28 3.28 0 001.47-1.895h3.65a.95.95 0 00.947-.949c-.046-.57-.471-.996-.995-.996zM7.775 5.57A1.9 1.9 0 015.88 3.674a1.9 1.9 0 011.895-1.896c1.042 0 1.896.854 1.896 1.896.046 1.044-.805 1.896-1.896 1.896z" fill="#fff"/></svg>