<svg width="110" height="110" fill="none" xmlns="http://www.w3.org/2000/svg"><g filter="url(#filter0_d)" fill="#fff"><path fill-rule="evenodd" clip-rule="evenodd" d="M55 101c27.614 0 50-22.386 50-50S82.614 1 55 1 5 23.386 5 51s22.386 50 50 50zM44.969 36.783L73.77 49.908c.615.3 1.23.6 1.23 1.425 0 .825-.615 1.125-1.23 1.425l-28.8 13.125c-.144.06-.266.12-.38.177-.31.153-.553.273-1.003.273-.845 0-1.92-.525-1.92-1.5v-27c0-.975 1.075-1.5 1.92-1.5.45 0 .694.12 1.003.274.114.056.236.116.38.176z" fill-opacity=".8"/><path d="M73.77 49.908l.22-.45-.012-.005-.207.455zm-28.8-13.125l.207-.455-.007-.003-.007-.003-.193.461zm28.8 15.975l.208.456.012-.006-.22-.45zm-28.8 13.125l.193.462.007-.004.007-.003-.207-.455zm-.38.177l.222.448-.222-.448zm0-29.453l.222-.449-.222.449zM104.5 51c0 27.338-22.162 49.5-49.5 49.5v1c27.89 0 50.5-22.61 50.5-50.5h-1zM55 1.5c27.338 0 49.5 22.162 49.5 49.5h1C105.5 23.11 82.89.5 55 .5v1zM5.5 51C5.5 23.662 27.662 1.5 55 1.5v-1C27.11.5 4.5 23.11 4.5 51h1zM55 100.5C27.662 100.5 5.5 78.338 5.5 51h-1c0 27.89 22.61 50.5 50.5 50.5v-1zm18.978-51.047L45.176 36.328l-.415.91 28.802 13.125.415-.91zm1.521 1.88c0-.561-.219-.971-.542-1.274-.295-.277-.676-.458-.967-.6l-.439.899c.323.157.557.276.723.431.137.129.225.28.225.544h1zm-1.51 1.875c.292-.143.672-.324.968-.6.323-.303.542-.713.542-1.275h-1c0 .264-.088.416-.225.545-.166.154-.4.273-.723.431l.439.899zm-28.813 13.13l28.802-13.125-.415-.91-28.802 13.125.415.91zm-.365.17a5.91 5.91 0 01.35-.163l-.385-.923a6.52 6.52 0 00-.408.19l.443.896zm-1.225.325c.57 0 .901-.165 1.225-.325l-.443-.896c-.295.145-.453.221-.782.221v1zm-2.42-2c0 .697.392 1.211.863 1.53a2.86 2.86 0 001.557.47v-1a1.87 1.87 0 01-.997-.298c-.277-.188-.423-.423-.423-.702h-1zm0-27v27h1v-27h-1zm2.42-2a2.86 2.86 0 00-1.557.47c-.472.32-.863.834-.863 1.53h1c0-.278.146-.514.423-.701a1.86 1.86 0 01.997-.299v-1zm1.225.325c-.324-.16-.654-.325-1.225-.325v1c.33 0 .487.076.782.222l.443-.897zm.35.164a5.91 5.91 0 01-.35-.164l-.443.897c.112.056.247.123.408.19l.386-.923z"/></g><defs><filter id="filter0_d" x=".5" y=".5" width="109" height="109" filterUnits="userSpaceOnUse" color-interpolation-filters="sRGB"><feFlood flood-opacity="0" result="BackgroundImageFix"/><feColorMatrix in="SourceAlpha" values="0 0 0 0 0 0 0 0 0 0 0 0 0 0 0 0 0 0 127 0"/><feOffset dy="4"/><feGaussianBlur stdDeviation="2"/><feColorMatrix values="0 0 0 0 0 0 0 0 0 0 0 0 0 0 0 0 0 0 0.1 0"/><feBlend in2="BackgroundImageFix" result="effect1_dropShadow"/><feBlend in="SourceGraphic" in2="effect1_dropShadow" result="shape"/></filter></defs></svg>