<svg width="21" height="22" fill="none" xmlns="http://www.w3.org/2000/svg"><path fill-rule="evenodd" clip-rule="evenodd" d="M7.871 15.18a2.04 2.04 0 011.403-2.399l2.202-.656a7.753 7.753 0 01-.476-.816c-.596-.198-1.119-.749-1.379-1.492a2.823 2.823 0 01-.105-.396l-.996-.297c-.7.856-1.605 1.452-2.659 1.452-1.054 0-1.957-.596-2.658-1.452L.83 9.832c-.493.146-.831.6-.831 1.114v.966a5.861 5.861 0 005.861 5.861 5.84 5.84 0 002.502-.566 6.987 6.987 0 01-.171-.612L7.87 15.18z" fill="#fff"/><path fill-rule="evenodd" clip-rule="evenodd" d="M20.044 13.478l-2.454-.731c-.74.887-1.7 1.554-2.827 1.554-1.126 0-2.087-.667-2.827-1.554l-2.454.731a1.308 1.308 0 00-.902 1.542l.321 1.414a6.011 6.011 0 0011.724 0l.321-1.414a1.308 1.308 0 00-.902-1.542zM2.182 6.715c.225.283.511.454.785.448.618 1.418 1.708 2.635 2.952 2.635 1.245 0 2.335-1.217 2.953-2.635.274.006.56-.165.785-.448.12-.15.222-.328.294-.533.133-.384.131-.765.026-1.057-.083-.229-.228-.405-.431-.476-.033.01-.066.023-.102.025a.421.421 0 01-.218-.047.44.44 0 01-.235-.267c-.009-.03-.23-.718-1.54-.718a4.04 4.04 0 00-.4.02s-.136.012-.347.012c-.698 0-1.64-.121-2.154-.696a1.328 1.328 0 01-.25-.405c-.485.307-1.18.888-1.449 1.801a.43.43 0 01-.214.256.427.427 0 01-.255.054c-.035-.005-.066-.018-.098-.03-.198.073-.34.246-.422.471-.106.292-.108.673.026 1.057.071.205.175.383.294.533z" fill="#fff"/><path fill-rule="evenodd" clip-rule="evenodd" d="M4.645 1.897c-.132 1.209 1.386 1.341 2.059 1.341.189 0 .31-.01.31-.01.156-.015.301-.022.437-.022 1.703 0 1.96 1.04 1.96 1.04l.105-.783a3.026 3.026 0 00-2.564-3.4 2 2 0 00-1.746.611l-.03.032a1.898 1.898 0 00-1.882.175A2.21 2.21 0 002.36 2.8l.073 1.452c.496-1.687 2.212-2.354 2.212-2.354zm14.63 6.473c-.09-.261-.242-.51-.484-.543-.053-.008-.116.01-.156.01-.06 0-.2-.075-.236-.102-.801-.605-2.154-1.012-3.595-1.012-1.442 0-2.793.407-3.594 1.012-.036.027-.175.102-.236.102-.04 0-.103-.018-.156-.01-.242.033-.394.282-.484.543-.112.322-.111.736.035 1.154.076.221.187.413.313.576.25.322.573.516.88.51.678 1.553 1.882 2.91 3.242 2.91s2.565-1.357 3.242-2.91c.308.006.63-.188.881-.51.127-.163.237-.355.314-.576.145-.418.146-.832.034-1.154z" fill="#fff"/><path fill-rule="evenodd" clip-rule="evenodd" d="M12.095 6.725l.165-1.465.28 1.32a8.313 8.313 0 012.29-.308c.442 0 .867.034 1.273.093l.394-1.936.151 2.034c.85.185 1.579.493 2.096.884a3.994 3.994 0 00-1.738-4.229c.003-.044.015-.086.015-.132a1.6 1.6 0 00-.078-.47c-.244-.792-1.077-1.38-2.077-1.38-.982 0-1.801.567-2.06 1.339a1.588 1.588 0 00-.095.511c0 .032.009.06.01.091a4.004 4.004 0 00-1.805 4.27c.32-.242.72-.452 1.18-.622z" fill="#fff"/></svg>