<svg width="21" height="22" fill="none" xmlns="http://www.w3.org/2000/svg"><path d="M20.713 18.795l-4.102-4.102c-.205-.164-.45-.287-.697-.287h-.656a8.552 8.552 0 001.805-5.25c0-4.676-3.856-8.531-8.532-8.531C3.814.625 0 4.48 0 9.156a8.525 8.525 0 008.531 8.531 8.477 8.477 0 005.25-1.804v.697a.96.96 0 00.287.697l4.06 4.06c.411.411 1.026.411 1.395 0l1.149-1.148c.41-.369.41-.984.04-1.394zM8.53 14.406a5.234 5.234 0 01-5.25-5.25c0-2.87 2.338-5.25 5.25-5.25 2.871 0 5.25 2.38 5.25 5.25 0 2.912-2.379 5.25-5.25 5.25z" fill="#FF6B00"/></svg>