<svg width="24" height="24" fill="none" xmlns="http://www.w3.org/2000/svg"><path fill-rule="evenodd" clip-rule="evenodd" d="M15.734 8.291a.923.923 0 00-1.305 0l-2.32 2.32-2.321-2.32a.923.923 0 10-1.306 1.305l2.321 2.321-2.32 2.321a.923.923 0 101.305 1.305l2.32-2.32 2.32 2.32a.92.92 0 001.306 0 .923.923 0 000-1.305l-2.32-2.321 2.32-2.32a.923.923 0 000-1.306zm-3.626 13.627c-5.513 0-10-4.487-10-10 0-5.515 4.487-10 10-10 5.515 0 10 4.485 10 10 0 5.513-4.485 10-10 10zm0-21.847C5.577.071.262 5.385.262 11.918c0 6.531 5.315 11.846 11.846 11.846 6.533 0 11.846-5.315 11.846-11.846C23.954 5.385 18.642.07 12.108.07z" fill="#FF6B00"/></svg>