<svg width="20" height="20" fill="none" xmlns="http://www.w3.org/2000/svg"><path d="M5.067 6.166a.416.416 0 00.566-.05 5.823 5.823 0 018.585-.108.415.415 0 00.591 0l2.43-2.28a.416.416 0 000-.59 9.983 9.983 0 00-14.834.333.416.416 0 00.083.615l2.58 2.08zm-.715 6.148a.416.416 0 00.116-.44 5.732 5.732 0 010-3.711.416.416 0 00-.133-.458l-2.72-2.171a.416.416 0 00-.633.141 9.925 9.925 0 00.125 8.86.417.417 0 00.649.117l2.596-2.338zm15.607-3.569a.416.416 0 00-.416-.416h-8.32a.416.416 0 00-.415.416v3.328a.416.416 0 00.416.416h4.026a5.65 5.65 0 01-.948 1.39.416.416 0 000 .557l2.221 2.496a.416.416 0 00.607 0 9.983 9.983 0 002.829-6.44V8.745zm-7.055 6.622a.415.415 0 00-.483-.1 5.765 5.765 0 01-6.738-1.355.416.416 0 00-.583 0l-2.496 2.23a.416.416 0 000 .59 9.984 9.984 0 0012.48 1.872.417.417 0 00.1-.633l-2.28-2.604z" fill="#fff"/></svg>