<svg width="142" height="16" fill="none" xmlns="http://www.w3.org/2000/svg"><path d="M5.947.968h3.261L14.848 16H11.71l-1.251-3.589H4.696L3.446 16H.307L5.948.968zm3.59 8.839L8.202 6.033 7.67 4.23h-.164l-.554 1.804L5.6 9.807h3.937zm7.34-8.84h3.303l6.05 10.07h.164l-.164-2.891V.968h2.81V16h-2.995L19.667 5.356h-.164l.164 2.892V16h-2.79V.968zm15.587 0h5.29c.944 0 1.812.199 2.605.596a4.547 4.547 0 011.846 1.681c.451.711.677 1.531.677 2.461 0 .93-.226 1.757-.677 2.482a4.686 4.686 0 01-1.846 1.702 5.741 5.741 0 01-2.604.594h-2.461V16h-2.83V.968zm5.373 6.83c.71 0 1.258-.205 1.64-.615.41-.438.616-.93.616-1.477a1.99 1.99 0 00-.616-1.456c-.396-.396-.943-.595-1.64-.595h-2.543v4.143h2.543zM45.26.967h2.83v6.01h6.316V.967h2.85V16h-2.85V9.663H48.09V16h-2.83V.968zm19.646 0h3.261L73.808 16H70.67l-1.251-3.589h-5.763L62.406 16h-3.138L64.908.968zm3.59 8.84l-1.334-3.774-.533-1.804h-.164l-.554 1.804-1.353 3.774h3.937zm9.002-6.153h-4.184V.968h11.218v2.686H80.35V16h-2.851V3.654zm9.31-2.686h2.83v12.346h6.358V16H86.81V.968zm15.792 0h3.26L111.501 16h-3.138l-1.251-3.589h-5.762L100.099 16h-3.138L102.6.968zm3.588 8.839l-1.333-3.774-.533-1.804h-.164l-.554 1.804-1.353 3.774h3.937zm7.342-8.84h3.302l6.05 10.07h.164l-.164-2.891V.968h2.809V16h-2.994L116.32 5.356h-.164l.164 2.892V16h-2.789V.968zm15.586 0h5.086c1.559 0 2.919.315 4.081.944a6.9 6.9 0 012.707 2.646c.629 1.12.944 2.426.944 3.917 0 1.504-.315 2.816-.944 3.937a6.72 6.72 0 01-2.707 2.646c-1.162.628-2.522.943-4.081.943h-5.086V.968zm4.963 12.347c1.613 0 2.851-.431 3.712-1.293.848-.847 1.271-2.03 1.271-3.547 0-1.504-.423-2.68-1.271-3.528-.861-.861-2.099-1.292-3.712-1.292h-2.133v9.66h2.133z" fill="#172B74"/></svg>