<svg width="16" height="12" viewBox="0 0 16 12" fill="none" xmlns="http://www.w3.org/2000/svg">
<path d="M3.70456 5.99999C3.70456 3.62675 5.62678 1.70454 8.00002 1.70454C8.72666 1.70454 9.40678 1.88709 10.0081 2.2021L11.0534 1.15686C10.1656 0.602012 9.12398 0.272705 8.00002 0.272705C4.83567 0.272705 2.27273 2.83565 2.27273 5.99999H0.125L2.98863 8.86362L5.85225 5.99999H3.70456Z" fill="white"/>
<path d="M13.0115 3.13635L10.1479 5.99998H12.2956C12.2956 8.37322 10.3734 10.2954 8.00014 10.2954C7.2735 10.2954 6.59338 10.1129 5.99201 9.79787L4.94678 10.8431C5.83449 11.3979 6.87614 11.7273 8.00014 11.7273C11.1644 11.7273 13.7274 9.16432 13.7274 5.99998H15.8751L13.0115 3.13635Z" fill="white"/>
</svg>
