<svg width="14" height="15" viewBox="0 0 14 15" fill="none" xmlns="http://www.w3.org/2000/svg">
<path d="M13.5898 10.6484L10.5273 9.33594C10.4453 9.30859 10.3633 9.28125 10.2539 9.28125C10.0625 9.28125 9.87109 9.39062 9.76172 9.52734L8.39453 11.1953C6.26172 10.1836 4.56641 8.48828 3.55469 6.35547L5.22266 4.98828C5.35938 4.87891 5.46875 4.6875 5.46875 4.46875C5.46875 4.38672 5.44141 4.30469 5.41406 4.22266L4.10156 1.16016C3.99219 0.914062 3.74609 0.75 3.47266 0.75C3.44531 0.75 3.39062 0.777344 3.33594 0.777344L0.492188 1.43359C0.191406 1.51562 0 1.76172 0 2.0625C0 9.08984 5.66016 14.75 12.6875 14.75C12.9883 14.75 13.2344 14.5586 13.3164 14.2578L13.9727 11.4141C13.9727 11.3594 13.9727 11.3047 13.9727 11.2773C13.9727 11.0039 13.8086 10.7578 13.5898 10.6484Z" fill="#172B74"/>
</svg>
