<svg width="24" height="24" viewBox="0 0 24 24" fill="none" xmlns="http://www.w3.org/2000/svg">
<path fill-rule="evenodd" clip-rule="evenodd" d="M15.734 8.2911C15.3734 7.93049 14.7894 7.93049 14.4288 8.2911L12.1082 10.6117L9.78757 8.2911C9.42696 7.93049 8.84296 7.93049 8.48234 8.2911C8.12173 8.65172 8.12173 9.23633 8.48234 9.59633L10.803 11.917L8.48234 14.2382C8.12173 14.5982 8.12173 15.1828 8.48234 15.5434C8.66265 15.7237 8.89834 15.8136 9.13465 15.8136C9.37096 15.8136 9.60727 15.7237 9.78757 15.5434L12.1082 13.2222L14.4288 15.5434C14.6091 15.7237 14.8454 15.8136 15.0817 15.8136C15.318 15.8136 15.5537 15.7237 15.734 15.5434C16.0946 15.1828 16.0946 14.5982 15.734 14.2382L13.4134 11.917L15.734 9.59633C16.0946 9.23633 16.0946 8.65172 15.734 8.2911ZM12.1084 21.9176C6.59451 21.9176 2.10836 17.4314 2.10836 11.9176C2.10836 6.4031 6.59451 1.91756 12.1084 1.91756C17.6228 1.91756 22.1084 6.4031 22.1084 11.9176C22.1084 17.4314 17.6228 21.9176 12.1084 21.9176ZM12.1084 0.0714111C5.57667 0.0714111 0.262207 5.38526 0.262207 11.9176C0.262207 18.4493 5.57667 23.7637 12.1084 23.7637C18.6407 23.7637 23.9545 18.4493 23.9545 11.9176C23.9545 5.38526 18.6407 0.0714111 12.1084 0.0714111Z" fill="#FF6B00"/>
</svg>
