<svg width="18" height="18" viewBox="0 0 18 18" fill="none" xmlns="http://www.w3.org/2000/svg">
<path d="M16.7251 2.925L15.0751 1.275C14.2501 0.45 12.7501 0.45 11.9251 1.275L1.72512 11.475C1.65012 11.55 1.65012 11.625 1.57512 11.7V11.775V11.85L0.825125 16.35C0.750125 16.575 0.900125 16.8 1.05012 17.025C1.12512 17.175 1.27512 17.25 1.50012 17.25C1.57512 17.25 1.57512 17.25 1.65012 17.25L6.15012 16.5H6.22512H6.30012C6.37512 16.5 6.45012 16.425 6.52512 16.35L16.7251 6.075C17.6251 5.25 17.6251 3.75 16.7251 2.925ZM12.7501 7.95L10.0501 5.25L11.7751 3.525L14.4751 6.225L12.7501 7.95Z" fill="white"/>
</svg>
