<svg width="47" height="44" viewBox="0 0 47 44" fill="none" xmlns="http://www.w3.org/2000/svg">
<path d="M8 24H11C14.284 24 17.3 25.462 19 28H25C27.907 28 31 31.093 31 34H17" stroke="#2E71F2" stroke-width="3" stroke-miterlimit="10"/>
<path d="M29.176 30H39C43.833 30 45 34 45 34L23.797 41.746C22.15 42.138 20.427 42.076 18.812 41.566L8 37" stroke="#2E71F2" stroke-width="3" stroke-miterlimit="10"/>
<path d="M33 22C35.7614 22 38 19.7614 38 17C38 14.2386 35.7614 12 33 12C30.2386 12 28 14.2386 28 17C28 19.7614 30.2386 22 33 22Z" stroke="#2E71F2" stroke-width="3" stroke-miterlimit="10" stroke-linecap="square"/>
<path d="M19 12C21.7614 12 24 9.76142 24 7C24 4.23858 21.7614 2 19 2C16.2386 2 14 4.23858 14 7C14 9.76142 16.2386 12 19 12Z" stroke="#2E71F2" stroke-width="3" stroke-miterlimit="10" stroke-linecap="square"/>
<path d="M8 22H2V38H8V22Z" stroke="#2E71F2" stroke-width="3" stroke-miterlimit="10" stroke-linecap="square"/>
</svg>
