<svg width="21" height="23" viewBox="0 0 21 23" fill="none" xmlns="http://www.w3.org/2000/svg">
<path fill-rule="evenodd" clip-rule="evenodd" d="M10.206 12.1272V13.0154C10.206 13.321 10.0452 13.611 9.77373 13.7512C9.45976 13.913 9.08482 13.852 8.83905 13.6063L8.25792 13.0248L7.71127 13.5715L9.06884 14.9286C9.21984 15.0799 9.30328 15.281 9.30328 15.4952V21.4116C9.30328 21.8 9.61837 22.115 10.0067 22.115H11.1784C11.5667 22.115 11.8818 21.8 11.8818 21.4116V16.3848C11.8818 16.1707 11.9654 15.9696 12.1163 15.8183L13.2415 14.6934L12.6949 14.1467L12.346 14.4956C12.1004 14.7413 11.7261 14.8023 11.4121 14.6408C11.1403 14.5014 10.9791 14.2114 10.9791 13.9058V12.1272H10.206Z" fill="white"/>
<path fill-rule="evenodd" clip-rule="evenodd" d="M20.9528 9.12246C20.9528 6.53992 18.9496 4.4166 16.4153 4.2249C15.5312 1.73278 13.1646 0.0373535 10.4764 0.0373535C7.78784 0.0373535 5.42172 1.73278 4.53712 4.22527C2.00327 4.41688 0 6.53992 0 9.12246C0 10.4401 0.522305 11.6854 1.44714 12.6041C1.41016 12.8331 1.3913 13.0643 1.3913 13.2963C1.3913 15.6755 3.32701 17.6113 5.70624 17.6113H8.27028V15.5913L6.81692 14.1376C6.66555 13.9867 6.58248 13.7856 6.58248 13.5714C6.58248 13.3576 6.66555 13.1565 6.81692 13.0051L7.69167 12.1304C8.00388 11.8183 8.51197 11.8183 8.82418 12.1304L9.17338 12.4796V11.8952C9.17338 11.4538 9.5327 11.0945 9.97407 11.0945H11.211C11.6528 11.0945 12.0118 11.4535 12.0118 11.8952V13.3692L12.1286 13.2523C12.2796 13.1013 12.4811 13.0179 12.6949 13.0179C12.9087 13.0179 13.1098 13.1013 13.2611 13.2523L14.1359 14.1271C14.448 14.4393 14.448 14.9474 14.1359 15.2596L12.9148 16.4806V17.6113H15.2462C17.6259 17.6113 19.5616 15.6755 19.5616 13.2963C19.5616 13.0643 19.5426 12.8331 19.5057 12.6041C20.4305 11.6854 20.9528 10.4401 20.9528 9.12246Z" fill="white"/>
</svg>
