<svg width="16" height="16" viewBox="0 0 16 16" fill="none" xmlns="http://www.w3.org/2000/svg">
<path fill-rule="evenodd" clip-rule="evenodd" d="M7.9926 0.37854C3.77949 0.37854 0.363647 3.79438 0.363647 8.00749C0.363647 12.2204 3.77949 15.6364 7.9926 15.6364C12.2066 15.6364 15.6215 12.2204 15.6215 8.00749C15.6215 3.79438 12.2066 0.37854 7.9926 0.37854ZM10.0731 10.953C9.69767 11.374 9.15578 11.6217 8.44702 11.6962V12.7756H7.54369V11.7019C6.36184 11.5808 5.6308 10.8934 5.34867 9.64186L6.74556 9.27762C6.87508 10.0645 7.30346 10.4576 8.03071 10.4576C8.37062 10.4576 8.62206 10.3738 8.78227 10.2053C8.94249 10.0366 9.0225 9.83362 9.0225 9.5953C9.0225 9.34851 8.94249 9.16121 8.78227 9.03464C8.62206 8.90702 8.26542 8.74595 7.71322 8.55038C7.21689 8.3781 6.82852 8.20857 6.54914 8.03904C6.26976 7.87141 6.04246 7.63584 5.86827 7.33318C5.69413 7.02951 5.60666 6.67563 5.60666 6.27344C5.60666 5.74538 5.76308 5.26943 6.07419 4.84671C6.38527 4.42488 6.87508 4.16688 7.54369 4.07275V3.23942H8.44702V4.0729C9.45658 4.19397 10.1103 4.76479 10.4073 5.78643L9.16323 6.29672C8.92006 5.59637 8.54581 5.24629 8.03726 5.24629C7.78217 5.24629 7.57729 5.32441 7.42363 5.48101C7.26897 5.63742 7.19171 5.82729 7.19171 6.04994C7.19171 6.27724 7.26621 6.45139 7.41521 6.57334C7.56332 6.69441 7.88275 6.84427 8.37077 7.02411C8.90714 7.21968 9.32807 7.40493 9.63263 7.57911C9.93805 7.75329 10.1811 7.99453 10.3637 8.30084C10.5453 8.60816 10.6365 8.96669 10.6365 9.37731C10.6363 10.0078 10.4484 10.5331 10.0731 10.953Z" fill="#00162E"/>
</svg>
