<svg width="12" height="7" viewBox="0 0 12 7" fill="none" xmlns="http://www.w3.org/2000/svg">
<path d="M6.42857 0.359375C6.51786 0.359375 6.6183 0.404018 6.68527 0.470982L11.8862 5.67188C11.9531 5.73884 11.9978 5.83929 11.9978 5.92857C11.9978 6.01786 11.9531 6.1183 11.8862 6.18527L11.3281 6.7433C11.2612 6.81027 11.1607 6.85491 11.0714 6.85491C10.9821 6.85491 10.8817 6.81027 10.8147 6.7433L6.42857 2.35714L2.04241 6.7433C1.97545 6.81027 1.875 6.85491 1.78571 6.85491C1.68527 6.85491 1.59598 6.81027 1.52902 6.7433L0.970982 6.18527C0.904018 6.1183 0.859375 6.01786 0.859375 5.92857C0.859375 5.83929 0.904018 5.73884 0.970982 5.67187L6.17188 0.470982C6.23884 0.404018 6.33929 0.359375 6.42857 0.359375Z" fill="#00162E"/>
</svg>
