<svg width="19" height="18" viewBox="0 0 19 18" fill="none" xmlns="http://www.w3.org/2000/svg">
<path d="M17.7066 12.9085C17.9774 13.1793 18.1129 13.5082 18.1129 13.8951C18.1129 14.282 17.9774 14.6109 17.7066 14.8817L15.7334 16.8549C15.4626 17.1257 15.1337 17.2612 14.7468 17.2612C14.3599 17.2612 14.031 17.1257 13.7602 16.8549L9.49456 12.5893L5.22893 16.8549C4.9581 17.1257 4.62923 17.2612 4.24233 17.2612C3.85542 17.2612 3.52655 17.1257 3.25572 16.8549L1.28251 14.8817C1.01167 14.6109 0.876256 14.282 0.876256 13.8951C0.876256 13.5082 1.01167 13.1793 1.28251 12.9085L5.54813 8.64286L1.28251 4.37723C1.01167 4.1064 0.876256 3.77753 0.876256 3.39062C0.876256 3.00372 1.01167 2.67485 1.28251 2.40402L3.25572 0.430802C3.52655 0.159969 3.85542 0.0245525 4.24233 0.0245525C4.62923 0.0245525 4.9581 0.159969 5.22893 0.430802L9.49456 4.69643L13.7602 0.430802C14.031 0.159969 14.3599 0.0245525 14.7468 0.0245525C15.1337 0.0245525 15.4626 0.159969 15.7334 0.430802L17.7066 2.40402C17.9774 2.67485 18.1129 3.00372 18.1129 3.39062C18.1129 3.77753 17.9774 4.1064 17.7066 4.37723L13.441 8.64286L17.7066 12.9085Z" fill="#00162E"/>
</svg>
