<svg width="18" height="19" viewBox="0 0 18 19" fill="none" xmlns="http://www.w3.org/2000/svg">
<path d="M9 17.7679C9.10714 17.7679 9.16071 17.7143 9.16071 17.6071C9.16071 17.5 9.10714 17.4464 9 17.4464C8.60491 17.4464 8.26339 17.3025 7.97545 17.0145C7.6942 16.7333 7.55357 16.3951 7.55357 16C7.55357 15.8929 7.5 15.8393 7.39286 15.8393C7.28571 15.8393 7.23214 15.8929 7.23214 16C7.23214 16.4888 7.4029 16.904 7.74442 17.2455C8.09263 17.5938 8.51116 17.7679 9 17.7679ZM17.3571 14.7143C17.3571 15.0625 17.2299 15.3638 16.9754 15.6183C16.721 15.8728 16.4196 16 16.0714 16H11.5714C11.5714 16.7098 11.3203 17.3158 10.8181 17.8181C10.3158 18.3203 9.70982 18.5714 9 18.5714C8.29018 18.5714 7.68415 18.3203 7.18192 17.8181C6.67969 17.3158 6.42857 16.7098 6.42857 16H1.92857C1.58036 16 1.27902 15.8728 1.02455 15.6183C0.770089 15.3638 0.642857 15.0625 0.642857 14.7143C0.977679 14.433 1.28237 14.1384 1.55692 13.8304C1.83147 13.5223 2.11607 13.1239 2.41071 12.635C2.70536 12.1395 2.95313 11.6071 3.15402 11.0379C3.36161 10.4687 3.52902 9.77902 3.65625 8.96875C3.79018 8.15848 3.85714 7.28795 3.85714 6.35714C3.85714 5.33929 4.24888 4.39509 5.03237 3.52455C5.81585 2.64732 6.84375 2.11495 8.11607 1.92745C8.0625 1.80022 8.03571 1.66964 8.03571 1.53571C8.03571 1.26786 8.12946 1.04018 8.31696 0.852678C8.50446 0.665178 8.73214 0.571427 9 0.571427C9.26786 0.571427 9.49554 0.665178 9.68304 0.852678C9.87054 1.04018 9.96429 1.26786 9.96429 1.53571C9.96429 1.66964 9.9375 1.80022 9.88393 1.92745C11.1563 2.11495 12.1842 2.64732 12.9676 3.52455C13.7511 4.39509 14.1429 5.33929 14.1429 6.35714C14.1429 7.28795 14.2065 8.15848 14.3337 8.96875C14.4676 9.77902 14.635 10.4687 14.8359 11.0379C15.0435 11.6071 15.2946 12.1395 15.5893 12.635C15.8839 13.1239 16.1685 13.5223 16.4431 13.8304C16.7176 14.1384 17.0223 14.433 17.3571 14.7143Z" fill="white"/>
</svg>
