<svg width="20" height="20" viewBox="0 0 20 20" fill="none" xmlns="http://www.w3.org/2000/svg">
<mask id="mask0" mask-type="alpha" maskUnits="userSpaceOnUse" x="0" y="0" width="12" height="20">
<path fill-rule="evenodd" clip-rule="evenodd" d="M5.90866 0H0.00234985V20H5.90866H11.815V0H5.90866Z" fill="white"/>
</mask>
<g mask="url(#mask0)">
<path fill-rule="evenodd" clip-rule="evenodd" d="M0.590797 5.89863H11.2242C11.7653 5.89863 12.0213 5.23102 11.6165 4.87496L6.29979 0.148477C6.07593 -0.0494922 5.73905 -0.0494922 5.51519 0.148477L0.198498 4.87496C-0.206325 5.23105 0.0497466 5.89863 0.590797 5.89863Z" fill="white"/>
<path fill-rule="evenodd" clip-rule="evenodd" d="M2.363 15.3126H3.54451V14.1408H2.363V15.3126ZM5.90748 8.24239C7.21072 8.24239 8.27045 9.29353 8.27045 10.5861C8.27045 11.8787 7.21072 12.9298 5.90748 12.9298C4.60428 12.9298 3.54451 11.8787 3.54451 10.5861C3.54451 9.29353 4.60428 8.24239 5.90748 8.24239ZM8.27045 15.3126H9.45195V14.1408H8.27045V15.3126ZM4.72597 15.3126H7.08898V14.1408H4.72597V15.3126ZM4.72597 17.6563H7.08898V16.4845H4.72597V17.6563ZM0.590783 20H1.77229C2.09878 20 2.363 19.738 2.363 19.4141V16.4845H3.54451V19.4141C3.54451 19.738 3.80873 20 4.13526 20C4.46179 20 4.72597 19.738 4.72597 19.4141V18.8282H7.08898V19.4141C7.08898 19.738 7.35321 20 7.6797 20C8.00622 20 8.27045 19.738 8.27045 19.4141V16.4845H9.45195V19.4141C9.45195 19.738 9.71618 20 10.0427 20H11.2242C11.5507 20 11.8149 19.738 11.8149 19.4141C11.8149 19.0902 11.5507 18.8282 11.2242 18.8282H10.6334C10.6334 14.5485 10.6334 11.2243 10.6334 7.07056H1.18154C1.18154 11.2236 1.18154 14.5487 1.18154 18.8282H0.590783C0.264254 18.8282 3.05176e-05 19.0902 3.05176e-05 19.4141C3.05176e-05 19.738 0.264254 20 0.590783 20Z" fill="white"/>
</g>
<path fill-rule="evenodd" clip-rule="evenodd" d="M18.8422 17.7254H16.7993C16.3346 17.7254 15.9169 17.4549 15.7354 17.0362L14.4572 12.9313C13.9833 11.8446 12.9805 11.0929 11.8182 10.9092V13.1928C12.134 13.2909 12.3981 13.5555 12.5322 13.865L14.1112 18.6211C14.477 19.4586 15.3119 20.0001 16.2396 20.0001H18.8422C19.4804 20.0001 20 19.4897 20 18.8627C20 18.2357 19.4804 17.7254 18.8422 17.7254Z" fill="white"/>
</svg>
