<svg width="20" height="19" viewBox="0 0 20 19" fill="none" xmlns="http://www.w3.org/2000/svg">
<path fill-rule="evenodd" clip-rule="evenodd" d="M8.0306 2.92425C8.81735 3.18348 9.66494 2.75589 9.92419 1.96948C10.1834 1.18301 9.75636 0.334996 8.96937 0.0757588C8.18286 -0.183478 7.33504 0.244057 7.07579 1.03053C6.81653 1.81746 7.24386 2.66477 8.0306 2.92425Z" fill="white"/>
<path fill-rule="evenodd" clip-rule="evenodd" d="M19.3395 17.6451C19.0103 17.6319 18.6872 17.6226 18.3706 17.6136C14.5757 17.5045 12.069 17.4327 9.53773 11.4936C9.41269 11.2005 9.27637 10.928 9.13449 10.6659C9.49271 10.5678 9.71006 10.2082 9.61876 9.85071L9.04441 7.59763C8.9869 7.37225 8.81659 7.19186 8.59251 7.11907L7.44872 6.74778L8.18746 4.53923C8.18746 4.53923 11.3439 4.69357 11.3555 4.69357C11.7199 4.69357 12.024 4.41175 12.0421 4.04922C12.0613 3.67558 11.7685 3.35739 11.3889 3.33891L7.83496 3.16514C7.76247 3.11881 7.68524 3.07776 7.59904 3.04996C7.04563 2.87072 6.4859 3.2029 6.3468 3.58352C6.27725 3.72948 5.23457 6.95054 5.23993 7.02043C2.88769 5.96842 0.64117 6.21926 0.602627 6.22409C0.226453 6.27042 0.00591802 6.57556 0.00591802 6.97899C0.00612035 6.98402 0 18.1025 0 18.3222C0 18.6966 0.308243 19 0.68816 19C1.06813 19 1.37637 18.6966 1.37637 18.3222V17.4716H4.25814V18.3222C4.25814 18.6964 4.56613 19 4.9463 19C5.32627 19 5.63451 18.6964 5.63451 18.3222V8.76288C6.64376 9.43079 7.60203 10.4542 8.26889 12.0186C11.1427 18.762 14.4736 18.8577 18.3304 18.9687C18.6422 18.9776 19.3031 19 19.3122 19C19.6799 19 19.9846 18.7141 19.9994 18.3494C20.0148 17.9754 19.7193 17.6599 19.3395 17.6451ZM1.37637 12.7272H4.25814V10.6937H1.37637V12.7272ZM1.37637 16.1162H4.25814V14.0827H1.37637V16.1162ZM4.25814 9.33813H1.37637V7.53999C2.02088 7.53864 3.10226 7.62448 4.25814 8.06428V9.33813ZM6.869 7.98681L7.80177 8.28961L7.98888 9.02388C7.63344 8.62533 7.25706 8.28203 6.869 7.98681Z" fill="white"/>
</svg>
