<svg width="16" height="16" viewBox="0 0 16 16" fill="none" xmlns="http://www.w3.org/2000/svg">
<path d="M15.9023 0.133417C15.8553 0.0855034 15.7948 0.0529288 15.7289 0.0399619C15.663 0.0269951 15.5947 0.034241 15.533 0.0607501L0.199672 6.66008C0.142142 6.68505 0.0928209 6.72573 0.057375 6.77747C0.021929 6.8292 0.00179635 6.88989 -0.000710151 6.95255C-0.00321665 7.01521 0.0120047 7.07731 0.0432053 7.13171C0.0744058 7.18611 0.12032 7.23061 0.175672 7.26008L4.62234 9.61408C4.65095 9.63022 4.68371 9.6375 4.71646 9.63501C4.74922 9.63251 4.7805 9.62036 4.80634 9.60008L11.6663 4.06675C11.6983 4.04028 11.739 4.02669 11.7804 4.02864C11.8219 4.03058 11.8611 4.04792 11.8905 4.07727C11.9198 4.10661 11.9372 4.14585 11.9391 4.18731C11.9411 4.22876 11.9275 4.26945 11.901 4.30142L6.36767 11.1614C6.34715 11.1868 6.33456 11.2177 6.33147 11.2501C6.32839 11.2826 6.33495 11.3153 6.35034 11.3441L8.70434 15.7908C8.7327 15.8443 8.77512 15.8891 8.82704 15.9204C8.87896 15.9516 8.93841 15.9681 8.99901 15.9681H9.01167C9.07433 15.9656 9.13503 15.9456 9.18679 15.9102C9.23856 15.8748 9.2793 15.8256 9.30434 15.7681L15.971 0.501417C15.9977 0.440252 16.0055 0.372478 15.9932 0.306867C15.981 0.241257 15.9493 0.180832 15.9023 0.133417Z" fill="white"/>
</svg>
