<svg width="22" height="16" viewBox="0 0 22 16" fill="none" xmlns="http://www.w3.org/2000/svg">
<path fill-rule="evenodd" clip-rule="evenodd" d="M1.28906 5.28V3.96H7.08984C7.4458 3.96 7.73438 3.6645 7.73438 3.3C7.73438 2.9355 7.4458 2.64 7.08984 2.64H1.28906V1.98C1.28906 1.61608 1.5782 1.32 1.93359 1.32H20.0664C20.4218 1.32 20.7109 1.61608 20.7109 1.98V2.64H14.9102C14.5542 2.64 14.2656 2.9355 14.2656 3.3C14.2656 3.6645 14.5542 3.96 14.9102 3.96H20.7109V5.28H1.28906ZM3.86719 7.92H18.1328V6.6H3.86719V7.92ZM20.7109 9.9V10.56H1.28906V9.9C1.28906 9.53608 1.5782 9.24 1.93359 9.24H20.0664C20.4218 9.24 20.7109 9.53608 20.7109 9.9ZM20.0664 0H1.93359C0.86741 0 0 0.888228 0 1.98V5.94C0 6.3045 0.288578 6.6 0.644531 6.6H2.57812V7.92H1.93359C0.86741 7.92 0 8.80823 0 9.9V11.22C0 11.5845 0.288578 11.88 0.644531 11.88H1.28906V14.52H0.644531C0.288578 14.52 0 14.8155 0 15.18C0 15.5445 0.288578 15.84 0.644531 15.84H3.22266C3.57861 15.84 3.86719 15.5445 3.86719 15.18C3.86719 14.8155 3.57861 14.52 3.22266 14.52H2.57812V11.88H19.4219V14.52H18.7773C18.4214 14.52 18.1328 14.8155 18.1328 15.18C18.1328 15.5445 18.4214 15.84 18.7773 15.84H21.3555C21.7114 15.84 22 15.5445 22 15.18C22 14.8155 21.7114 14.52 21.3555 14.52H20.7109V11.88H21.3555C21.7114 11.88 22 11.5845 22 11.22V9.9C22 8.80823 21.1326 7.92 20.0664 7.92H19.4219V6.6H21.3555C21.7114 6.6 22 6.3045 22 5.94V1.98C22 0.888228 21.1326 0 20.0664 0Z" fill="white"/>
</svg>
