<svg width="48" height="49" viewBox="0 0 48 49" fill="none" xmlns="http://www.w3.org/2000/svg">
<path fill-rule="evenodd" clip-rule="evenodd" d="M44.3891 12.7442C42.2619 9.10004 39.3766 6.21529 35.731 4.0876C32.0868 1.9604 28.1066 0.896317 23.7904 0.896317C19.4742 0.896317 15.494 1.9604 11.8498 4.0876C8.20372 6.21339 5.31849 9.10004 3.19129 12.7442C1.0636 16.3903 0 20.3705 0 24.6867C0 29.001 1.0636 32.9812 3.19129 36.6273C5.31849 40.2715 8.20372 43.1582 11.8479 45.284C15.494 47.4112 19.4742 48.4752 23.7904 48.4752C28.1066 48.4752 32.0868 47.4112 35.731 45.284C39.3752 43.1582 42.2619 40.2715 44.3891 36.6273C46.5149 32.9812 47.5785 29.001 47.5785 24.6867C47.5785 20.3705 46.5149 16.3884 44.3891 12.7442ZM35.6844 26.3891L18.8336 36.3023C18.5237 36.4881 18.1929 36.5808 17.8422 36.5808C17.5119 36.5808 17.1811 36.4976 16.8509 36.3322C16.1898 35.9406 15.8595 35.3632 15.8595 34.598V14.7735C15.8595 14.0103 16.1898 13.431 16.8509 13.0394C17.5324 12.6682 18.1929 12.6772 18.8336 13.0693L35.6844 22.9825C36.3455 23.3537 36.6758 23.9221 36.6758 24.6867C36.6758 25.4495 36.3455 26.0179 35.6844 26.3891Z" fill="white"/>
</svg>
