<svg width="18" height="12" viewBox="0 0 18 12" fill="none" xmlns="http://www.w3.org/2000/svg">
<path fill-rule="evenodd" clip-rule="evenodd" d="M16.1111 1.03168C15.5081 0.548115 14.8247 0 13.5002 0C12.1757 0 11.4923 0.548077 10.8893 1.03168C10.3509 1.46345 9.92573 1.8045 9.00028 1.8045C8.07476 1.8045 7.64951 1.46345 7.11109 1.03168C6.50816 0.548077 5.82472 0 4.50011 0C3.17552 0 2.49209 0.548077 1.88916 1.03168C1.35074 1.46345 0.925488 1.8045 0 1.8045V4.28571C0.925488 4.28571 1.35074 3.94466 1.88916 3.51289C2.49209 3.02929 3.17556 2.48121 4.50011 2.48121C5.82469 2.48121 6.50809 3.02929 7.11109 3.51289C7.64951 3.94466 8.07476 4.28571 9.00028 4.28571C9.92573 4.28571 10.351 3.94466 10.8893 3.51289C11.4923 3.02929 12.1757 2.48121 13.5002 2.48121C14.8247 2.48121 15.5081 3.02933 16.1111 3.51289C16.6494 3.94466 17.0747 4.28571 18 4.28571V1.8045C17.0747 1.8045 16.6494 1.46345 16.1111 1.03168Z" fill="white"/>
<path fill-rule="evenodd" clip-rule="evenodd" d="M13.5002 6.85718C12.5748 6.85718 12.1495 7.19823 11.6112 7.63003C11.0082 8.11363 10.3248 8.6617 9.00028 8.6617C7.67573 8.6617 6.99226 8.11363 6.3893 7.63003C5.85084 7.19823 5.42559 6.85718 4.50011 6.85718C3.57458 6.85718 3.14933 7.19823 2.61095 7.63003C2.00798 8.11363 1.32455 8.6617 0 8.6617V11.1429C1.32455 11.1429 2.00798 10.5948 2.61098 10.1112C3.1494 9.67942 3.57465 9.33837 4.50011 9.33837C5.42559 9.33837 5.85084 9.67942 6.38926 10.1112C6.99226 10.5948 7.6757 11.1429 9.00028 11.1429C10.3248 11.1429 11.0082 10.5948 11.6112 10.1112C12.1495 9.67942 12.5748 9.33837 13.5002 9.33837C14.4256 9.33837 14.8508 9.67942 15.3892 10.1112C15.9922 10.5948 16.6755 11.1429 18 11.1429V8.6617C16.6755 8.6617 15.9922 8.11363 15.3892 7.63003C14.8508 7.19823 14.4256 6.85718 13.5002 6.85718Z" fill="white"/>
<path fill-rule="evenodd" clip-rule="evenodd" d="M13.5002 3.42847C12.5748 3.42847 12.1495 3.75246 11.6112 4.16264C11.0082 4.6221 10.3248 5.14277 9.00028 5.14277C7.67573 5.14277 6.99226 4.6221 6.3893 4.16264C5.85084 3.75246 5.42559 3.42847 4.50011 3.42847C3.57458 3.42847 3.14933 3.75246 2.61095 4.16264C2.00798 4.6221 1.32455 5.14277 0 5.14277V7.71418C0.925488 7.71418 1.35074 7.39019 1.88916 6.97997C2.49209 6.52055 3.17556 5.99988 4.50011 5.99988C5.82469 5.99988 6.50809 6.52055 7.11109 6.97997C7.64951 7.39019 8.07476 7.71418 9.00028 7.71418C9.92573 7.71418 10.351 7.39019 10.8893 6.97997C11.4923 6.52055 12.1757 5.99988 13.5002 5.99988C14.8247 5.99988 15.5081 6.52059 16.1111 6.97997C16.6494 7.39019 17.0747 7.71418 18 7.71418V5.14277C16.6755 5.14277 15.9922 4.6221 15.3892 4.16264C14.8508 3.75246 14.4256 3.42847 13.5002 3.42847Z" fill="white"/>
</svg>
