<svg width="16" height="16" viewBox="0 0 16 16" fill="none" xmlns="http://www.w3.org/2000/svg">
<g clip-path="url(#clip0)">
<path d="M14.5625 7.50781C14.5625 7.42079 14.5279 7.33733 14.4664 7.27579C14.4049 7.21426 14.3214 7.17969 14.2344 7.17969H1.76562C1.6786 7.17969 1.59514 7.21426 1.53361 7.27579C1.47207 7.33733 1.4375 7.42079 1.4375 7.50781V13.5781C1.4375 14.1873 1.67949 14.7715 2.11024 15.2023C2.54099 15.633 3.12521 15.875 3.73438 15.875H12.2656C12.8748 15.875 13.459 15.633 13.8898 15.2023C14.3205 14.7715 14.5625 14.1873 14.5625 13.5781V7.50781Z" fill="white"/>
<path d="M15.2188 5.21094C15.2188 4.94986 15.115 4.69949 14.9304 4.51488C14.7458 4.33027 14.4954 4.22656 14.2344 4.22656H11.7734C11.6864 4.22656 11.603 4.19199 11.5414 4.13046C11.4799 4.06892 11.4453 3.98546 11.4453 3.89844V3.57031C11.4453 2.65656 11.0823 1.78023 10.4362 1.13411C9.79008 0.487987 8.91375 0.125 8 0.125C7.08625 0.125 6.20992 0.487987 5.5638 1.13411C4.91767 1.78023 4.55469 2.65656 4.55469 3.57031V3.89844C4.55469 3.98546 4.52012 4.06892 4.45858 4.13046C4.39705 4.19199 4.31359 4.22656 4.22656 4.22656H1.76562C1.50455 4.22656 1.25417 4.33027 1.06957 4.51488C0.884961 4.69949 0.78125 4.94986 0.78125 5.21094C0.78125 5.47201 0.884961 5.72239 1.06957 5.907C1.25417 6.0916 1.50455 6.19531 1.76562 6.19531H14.2344C14.4954 6.19531 14.7458 6.0916 14.9304 5.907C15.115 5.72239 15.2188 5.47201 15.2188 5.21094ZM6.19531 3.57031C6.19531 3.09168 6.38545 2.63265 6.72389 2.29421C7.06234 1.95576 7.52137 1.76562 8 1.76562C8.47863 1.76562 8.93766 1.95576 9.27611 2.29421C9.61455 2.63265 9.80469 3.09168 9.80469 3.57031V3.89844C9.80469 3.98546 9.77012 4.06892 9.70858 4.13046C9.64705 4.19199 9.56359 4.22656 9.47656 4.22656H6.52344C6.43641 4.22656 6.35295 4.19199 6.29142 4.13046C6.22988 4.06892 6.19531 3.98546 6.19531 3.89844V3.57031Z" fill="white"/>
</g>
<defs>
<clipPath id="clip0">
<rect width="15.75" height="15.75" fill="white" transform="translate(0.125 0.125)"/>
</clipPath>
</defs>
</svg>
