<svg width="18" height="15" viewBox="0 0 18 15" fill="none" xmlns="http://www.w3.org/2000/svg">
<path d="M14.625 14C16.4883 14 18 12.4883 18 10.625V3.875C18 2.01172 16.4883 0.5 14.625 0.5H11.6719C11.4258 0.5 11.25 0.710938 11.25 0.921875V2.32812C11.25 2.57422 11.4258 2.75 11.6719 2.75H14.625C15.2227 2.75 15.75 3.27734 15.75 3.875V10.625C15.75 11.2578 15.2227 11.75 14.625 11.75H11.6719C11.4258 11.75 11.25 11.9609 11.25 12.1719V13.5781C11.25 13.8242 11.4258 14 11.6719 14H14.625ZM12.9727 6.93359L7.06641 1.02734C6.53906 0.5 5.625 0.886719 5.625 1.625V5H0.84375C0.351562 5 0 5.38672 0 5.84375V9.21875C0 9.71094 0.351562 10.0625 0.84375 10.0625H5.625V13.4375C5.625 14.2109 6.53906 14.5625 7.06641 14.0352L12.9727 8.12891C13.2891 7.8125 13.2891 7.28516 12.9727 6.93359Z" fill="#F9F9F9"/>
</svg>
