<svg width="20" height="19" viewBox="0 0 20 19" fill="none" xmlns="http://www.w3.org/2000/svg">
<path fill-rule="evenodd" clip-rule="evenodd" d="M19.4025 9.49998C19.4025 14.6803 15.1803 18.9025 9.99998 18.9025C4.81963 18.9025 0.597412 14.6803 0.597412 9.49998C0.597412 4.31963 4.81963 0.0974121 9.99998 0.0974121C15.1803 0.0974121 19.4025 4.31963 19.4025 9.49998ZM18.0872 9.49998C18.0872 5.03416 14.4495 1.4128 9.99998 1.4128C5.5504 1.4128 1.9128 5.0504 1.9128 9.49998C1.9128 13.9495 5.53416 17.5872 9.99998 17.5872C14.4658 17.5872 18.0872 13.9658 18.0872 9.49998Z" fill="#D81221"/>
<path d="M5.6641 10.0684H14.3197C14.6932 10.0684 14.9855 9.77607 14.9855 9.40257C14.9855 9.02906 14.6932 8.73676 14.3197 8.73676H5.6641C5.2906 8.73676 4.99829 9.02906 4.99829 9.40257C4.99829 9.77607 5.30684 10.0684 5.6641 10.0684Z" fill="#D81221"/>
</svg>
