<svg width="34" height="32" viewBox="0 0 34 32" fill="none" xmlns="http://www.w3.org/2000/svg">
<path d="M29.0999 11.3454C29.6411 12.8383 29.9375 14.4476 29.9375 16.125C29.9375 23.8791 23.6291 30.1875 15.875 30.1875C8.12094 30.1875 1.8125 23.8791 1.8125 16.125C1.8125 8.37094 8.12094 2.0625 15.875 2.0625C19.0717 2.0625 22.0214 3.13687 24.3862 4.94081L25.2446 4.18538C22.6616 2.15363 19.4086 0.9375 15.875 0.9375C7.5005 0.9375 0.6875 7.7505 0.6875 16.125C0.6875 24.4995 7.5005 31.3125 15.875 31.3125C24.2495 31.3125 31.0625 24.4995 31.0625 16.125C31.0625 14.1214 30.6688 12.2083 29.9606 10.455L29.0999 11.3454Z" fill="white"/>
<path d="M31.0625 2.0625L17 14.4375L10.8125 9.9375L8.5625 12.1875L17 20.625L33.3125 3.75L31.0625 2.0625Z" fill="white"/>
</svg>
