<svg width="22" height="21" viewBox="0 0 22 21" fill="none" xmlns="http://www.w3.org/2000/svg">
<mask id="mask0" mask-type="alpha" maskUnits="userSpaceOnUse" x="0" y="0" width="22" height="12">
<path fill-rule="evenodd" clip-rule="evenodd" d="M0.00257874 11.4248V0.0292969H22V5.72704V11.4248H0.00257874Z" fill="white"/>
</mask>
<g mask="url(#mask0)">
<path fill-rule="evenodd" clip-rule="evenodd" d="M19.25 0.0292969H2.75C1.23385 0.0292969 0 1.30751 0 2.87817V8.57591C0 10.1466 1.23385 11.4248 2.75 11.4248H19.25C20.7662 11.4248 22 10.1466 22 8.57591V2.87817C22 1.30751 20.7662 0.0292969 19.25 0.0292969ZM17.4167 8.57591H4.58335C4.0764 8.57591 3.66665 8.1505 3.66665 7.6263C3.66665 7.10211 4.0764 6.67665 4.58335 6.67665H17.4167C17.9236 6.67665 18.3333 7.10211 18.3333 7.6263C18.3333 8.1505 17.9236 8.57591 17.4167 8.57591Z" fill="white"/>
</g>
<path fill-rule="evenodd" clip-rule="evenodd" d="M11.8718 15.2237C11.7207 15.1507 11.6362 15.0856 11.5921 15.0425C11.6362 15.0003 11.7207 14.9352 11.8718 14.8621C12.3317 14.6378 12.512 14.1072 12.2735 13.6761C12.0351 13.2441 11.471 13.0751 11.0082 13.2986C10.1644 13.7095 9.68 14.3448 9.68 15.0425C9.68 15.7411 10.1644 16.3764 11.0082 16.7864C11.2926 16.9245 11.3227 17.1515 11.3227 17.2422C11.3227 17.3337 11.2926 17.5607 11.0082 17.6988C10.5483 17.9223 10.368 18.4528 10.6065 18.8848C10.7735 19.1866 11.1012 19.36 11.4409 19.36C11.5855 19.36 11.7338 19.3283 11.8718 19.2614C12.6912 18.8628 13.2 18.0895 13.2 17.2422C13.2 16.3957 12.6912 15.6223 11.8718 15.2237Z" fill="white"/>
<path fill-rule="evenodd" clip-rule="evenodd" d="M6.62741 16.1035C6.47386 16.0305 6.38801 15.9653 6.34316 15.9222C6.38801 15.88 6.47386 15.8149 6.62741 15.7419C7.09487 15.5175 7.27802 14.9869 7.03571 14.5557C6.7934 14.1245 6.2201 13.9556 5.74983 14.1782C4.89223 14.5891 4.4 15.2245 4.4 15.9222C4.4 16.6209 4.89223 17.2562 5.74983 17.6663C5.9244 17.7498 6.01213 17.8766 6.01213 18.0446C6.01213 18.2144 5.91196 18.4441 5.63057 18.5787C5.16316 18.8023 4.98001 19.3329 5.22227 19.7649C5.3921 20.0667 5.72501 20.2401 6.07035 20.2401C6.21724 20.2401 6.36797 20.2084 6.5082 20.1415C7.37912 19.7253 7.92 18.9219 7.92 18.0446C7.92 17.2166 7.4373 16.4907 6.62741 16.1035Z" fill="white"/>
<path fill-rule="evenodd" clip-rule="evenodd" d="M16.2718 16.1035C16.1206 16.0305 16.0362 15.9653 15.9921 15.9222C16.0362 15.88 16.1206 15.8149 16.2718 15.7419C16.7317 15.5175 16.9119 14.9869 16.6735 14.5557C16.4351 14.1245 15.87 13.9556 15.4082 14.1782C14.5644 14.5891 14.08 15.2245 14.08 15.9222C14.08 16.6209 14.5644 17.2562 15.4082 17.6663C15.6926 17.8044 15.7227 18.0314 15.7227 18.1221C15.7227 18.2136 15.6926 18.4406 15.4082 18.5787C14.9483 18.8023 14.768 19.3329 15.0065 19.7649C15.1735 20.0667 15.5011 20.2401 15.8409 20.2401C15.9855 20.2401 16.1338 20.2084 16.2718 20.1415C17.0912 19.7429 17.6 18.9694 17.6 18.1221C17.6 17.2756 17.0912 16.5021 16.2718 16.1035Z" fill="white"/>
</svg>
