<?xml version="1.0" encoding="utf-8"?>
<!-- Generator: Adobe Illustrator 23.1.1, SVG Export Plug-In . SVG Version: 6.00 Build 0)  -->
<svg version="1.1" id="Layer_1" xmlns="http://www.w3.org/2000/svg" xmlns:xlink="http://www.w3.org/1999/xlink" x="0px" y="0px"
	 viewBox="0 0 8 14" style="enable-background:new 0 0 8 14;" xml:space="preserve">
<style type="text/css">
	.st0{fill:#00162E;}
</style>
<path class="st0" d="M4,9.9c-0.1,0-0.1,0-0.2-0.1L0.1,6.1C0,6.1,0,6,0,5.9c0-0.1,0-0.1,0.1-0.2l0.4-0.4c0,0,0.1-0.1,0.2-0.1
	c0.1,0,0.1,0,0.2,0.1L4,8.5l3.2-3.2c0,0,0.1-0.1,0.2-0.1c0.1,0,0.1,0,0.2,0.1l0.4,0.4C8,5.8,8,5.9,8,5.9C8,6,8,6.1,7.9,6.1L4.2,9.9
	C4.1,9.9,4.1,9.9,4,9.9z"/>
</svg>
