<svg width="16" height="22" viewBox="0 0 16 22" fill="none" xmlns="http://www.w3.org/2000/svg">
<path fill-rule="evenodd" clip-rule="evenodd" d="M7.7754 14.2944C6.73126 14.2944 5.8797 15.146 5.8797 16.1901V20.0301C5.8797 21.0719 6.73126 21.9258 7.7754 21.9258C8.81718 21.9258 9.67111 21.0719 9.67111 20.0301V16.1901C9.67111 15.146 8.81718 14.2944 7.7754 14.2944Z" fill="white"/>
<path fill-rule="evenodd" clip-rule="evenodd" d="M14.6483 2.67848H10.9979C10.5719 1.30366 9.29185 0.308105 7.77541 0.308105C6.25718 0.308105 4.97659 1.30366 4.55111 2.67848H0.949333C0.426074 2.67848 0 3.10455 0 3.62781C0 4.14811 0.426074 4.57418 0.949333 4.57418H4.5997C4.83556 5.38011 5.35644 6.0444 6.06696 6.46988C3.50933 7.22959 1.61126 9.59996 1.61126 12.3958V17.3754C1.61126 18.2269 2.32415 18.9398 3.1757 18.9398H4.4563V16.2364C4.4563 14.3893 5.97215 12.8705 7.82163 12.8705C9.67111 12.8705 11.1876 14.3893 11.1876 16.2364V18.9398H12.4676C13.3215 18.9398 14.0326 18.2269 14.0326 17.3754V12.4444C14.0326 9.64855 12.1363 7.22959 9.5763 6.51848C10.2868 6.09299 10.8077 5.4287 11.0465 4.62277H14.6969C15.2178 4.62277 15.6433 4.19492 15.6433 3.67403C15.597 3.10455 15.1716 2.67848 14.6483 2.67848ZM7.77541 5.56974C6.73126 5.56974 5.8797 4.71759 5.8797 3.67403C5.8797 2.63225 6.73126 1.77774 7.77541 1.77774C8.81718 1.77774 9.67111 2.63225 9.67111 3.67403C9.71733 4.71759 8.86578 5.56974 7.77541 5.56974Z" fill="white"/>
</svg>
