<svg width="12" height="20" viewBox="0 0 12 20" fill="none" xmlns="http://www.w3.org/2000/svg">
<path d="M11.117 5.975C11.0784 5.93108 11.031 5.89576 10.9779 5.87136C10.9248 5.84695 10.8671 5.83399 10.8087 5.83333H7.66699V4.65833C7.66699 4.425 7.71699 4.15833 8.09199 4.15833H10.592C10.6469 4.16067 10.7016 4.15065 10.752 4.12902C10.8025 4.10738 10.8475 4.07468 10.8837 4.03333C10.9571 3.95714 10.9988 3.85583 11.0003 3.75V0.416667C11.0003 0.30616 10.9564 0.200179 10.8783 0.122039C10.8001 0.0438987 10.6942 0 10.5837 0L6.97533 0C2.97533 0 2.66699 3.41667 2.66699 4.45833V5.83333H0.583659C0.473152 5.83333 0.367171 5.87723 0.289031 5.95537C0.210891 6.03351 0.166992 6.13949 0.166992 6.25V9.58333C0.166992 9.69384 0.210891 9.79982 0.289031 9.87796C0.367171 9.9561 0.473152 10 0.583659 10H2.66699V19.5833C2.66699 19.6938 2.71089 19.7998 2.78903 19.878C2.86717 19.9561 2.97315 20 3.08366 20H7.25033C7.36083 20 7.46681 19.9561 7.54495 19.878C7.62309 19.7998 7.66699 19.6938 7.66699 19.5833V10H10.4587C10.5623 10.0005 10.6624 9.96239 10.7395 9.89304C10.8165 9.8237 10.865 9.72814 10.8753 9.625L11.2253 6.29167C11.2301 6.23426 11.223 6.17648 11.2044 6.12198C11.1857 6.06747 11.156 6.01743 11.117 5.975Z" fill="white"/>
</svg>
