<svg width="20" height="20" viewBox="0 0 20 20" fill="none" xmlns="http://www.w3.org/2000/svg">
<path d="M5.06709 6.16628C5.15016 6.2312 5.25478 6.26215 5.3598 6.25289C5.46482 6.24362 5.5624 6.19482 5.63282 6.11636C6.17084 5.51429 6.82819 5.03068 7.56311 4.69625C8.29803 4.36181 9.09447 4.18386 9.90185 4.17369C10.7092 4.16352 11.5099 4.32135 12.253 4.63717C12.9961 4.95299 13.6654 5.41988 14.2185 6.00821C14.2571 6.0472 14.3031 6.07814 14.3538 6.09926C14.4045 6.12038 14.4589 6.13125 14.5138 6.13125C14.5687 6.13125 14.6231 6.12038 14.6738 6.09926C14.7245 6.07814 14.7705 6.0472 14.8091 6.00821L17.2384 3.72869C17.2774 3.69002 17.3084 3.64401 17.3295 3.59332C17.3506 3.54263 17.3615 3.48826 17.3615 3.43335C17.3615 3.37843 17.3506 3.32406 17.3295 3.27337C17.3084 3.22268 17.2774 3.17668 17.2384 3.13801C16.2792 2.1197 15.1167 1.31436 13.8262 0.774206C12.5357 0.234049 11.1462 -0.0288647 9.74757 0.00251151C8.34898 0.0338877 6.97259 0.358854 5.70765 0.956338C4.44271 1.55382 3.31747 2.41049 2.40488 3.47078C2.36669 3.51532 2.33835 3.56744 2.32173 3.6237C2.30511 3.67997 2.30058 3.73912 2.30843 3.79726C2.31629 3.8554 2.33636 3.91122 2.36732 3.96106C2.39828 4.01089 2.43943 4.05362 2.48807 4.08642L5.06709 6.16628Z" fill="white"/>
<path d="M4.35163 12.3143C4.41187 12.2601 4.45499 12.1896 4.47568 12.1112C4.49637 12.0329 4.49373 11.9502 4.4681 11.8734C4.05672 10.6708 4.05672 9.36552 4.4681 8.16291C4.49546 8.08219 4.49737 7.99501 4.47356 7.91318C4.44975 7.83134 4.40138 7.75879 4.33499 7.70534L1.61454 5.53397C1.56593 5.49525 1.50926 5.46791 1.44869 5.45397C1.38813 5.44002 1.32521 5.43982 1.26456 5.45339C1.20391 5.46696 1.14707 5.49394 1.09821 5.53236C1.04936 5.57078 1.00974 5.61966 0.982261 5.6754C0.315254 7.06098 -0.020672 8.58259 0.000984434 10.1202C0.0226409 11.6578 0.401287 13.1694 1.10705 14.5356C1.13638 14.5921 1.1783 14.6412 1.22958 14.679C1.28087 14.7168 1.34014 14.7423 1.40284 14.7535C1.46554 14.7648 1.52999 14.7615 1.59122 14.7439C1.65244 14.7263 1.70881 14.6949 1.75597 14.6521L4.35163 12.3143Z" fill="white"/>
<path d="M19.959 8.74532C19.959 8.63499 19.9152 8.52919 19.8372 8.45118C19.7591 8.37317 19.6533 8.32935 19.543 8.32935H11.2236C11.1133 8.32935 11.0075 8.37317 10.9295 8.45118C10.8514 8.52919 10.8076 8.63499 10.8076 8.74532V12.0731C10.8076 12.1834 10.8514 12.2892 10.9295 12.3672C11.0075 12.4452 11.1133 12.4891 11.2236 12.4891H15.2502C15.0052 12.9969 14.6855 13.4652 14.3018 13.8784C14.2328 13.9548 14.1946 14.0541 14.1946 14.1571C14.1946 14.2601 14.2328 14.3594 14.3018 14.4358L16.5231 16.9316C16.562 16.9732 16.609 17.0063 16.6612 17.029C16.7135 17.0516 16.7698 17.0633 16.8267 17.0633C16.8837 17.0633 16.94 17.0516 16.9922 17.029C17.0444 17.0063 17.0915 16.9732 17.1304 16.9316C18.8231 15.1994 19.8284 12.9109 19.959 10.4924V8.74532Z" fill="white"/>
<path d="M12.9039 15.3674C12.8446 15.3015 12.7658 15.2563 12.679 15.2384C12.5923 15.2204 12.502 15.2306 12.4214 15.2676C11.3014 15.795 10.0415 15.9479 8.82785 15.7036C7.61425 15.4594 6.51148 14.8311 5.68268 13.9115C5.60492 13.8353 5.50038 13.7926 5.3915 13.7926C5.28261 13.7926 5.17807 13.8353 5.10032 13.9115L2.60449 16.1411C2.5655 16.1798 2.53455 16.2258 2.51344 16.2765C2.49232 16.3272 2.48145 16.3815 2.48145 16.4365C2.48145 16.4914 2.49232 16.5457 2.51344 16.5964C2.53455 16.6471 2.5655 16.6931 2.60449 16.7318C4.15095 18.433 6.23719 19.5483 8.51081 19.8894C10.7844 20.2304 13.1061 19.7763 15.0836 18.6037C15.1362 18.5724 15.1812 18.53 15.2155 18.4794C15.2497 18.4289 15.2724 18.3713 15.282 18.311C15.2915 18.2506 15.2876 18.1889 15.2706 18.1302C15.2536 18.0715 15.2238 18.0173 15.1835 17.9714L12.9039 15.3674Z" fill="white"/>
</svg>
