<svg width="34" height="22" viewBox="0 0 34 22" fill="none" xmlns="http://www.w3.org/2000/svg">
<path d="M23 9.5C25.4825 9.5 27.485 7.4825 27.485 5C27.485 2.5175 25.4825 0.5 23 0.5C20.5175 0.5 18.5 2.5175 18.5 5C18.5 7.4825 20.5175 9.5 23 9.5ZM11 9.5C13.4825 9.5 15.485 7.4825 15.485 5C15.485 2.5175 13.4825 0.5 11 0.5C8.5175 0.5 6.5 2.5175 6.5 5C6.5 7.4825 8.5175 9.5 11 9.5ZM11 12.5C7.4975 12.5 0.5 14.255 0.5 17.75V21.5H21.5V17.75C21.5 14.255 14.5025 12.5 11 12.5ZM23 12.5C22.565 12.5 22.0775 12.53 21.5525 12.5825C23.2925 13.835 24.5 15.5225 24.5 17.75V21.5H33.5V17.75C33.5 14.255 26.5025 12.5 23 12.5Z" fill="white"/>
</svg>
