<svg width="16" height="16" viewBox="0 0 16 16" fill="none" xmlns="http://www.w3.org/2000/svg">
<path fill-rule="evenodd" clip-rule="evenodd" d="M7.99998 12.5554L5.78129 10.6834L1.16748 15.4546H14.8325L10.2187 10.6833L7.99998 12.5554Z" fill="#0A0B09"/>
<mask id="mask0" mask-type="alpha" maskUnits="userSpaceOnUse" x="0" y="6" width="16" height="9">
<path fill-rule="evenodd" clip-rule="evenodd" d="M0.54718 14.8411V6.26562H15.4545V14.8411H0.54718Z" fill="white"/>
</mask>
<g mask="url(#mask0)">
<path fill-rule="evenodd" clip-rule="evenodd" d="M10.8879 10.1187L15.4545 14.8411V6.26562L10.8879 10.1187Z" fill="#00162E"/>
<path fill-rule="evenodd" clip-rule="evenodd" d="M0.54541 6.26562V14.8411L5.11205 10.1187L0.54541 6.26562Z" fill="#00162E"/>
</g>
<path fill-rule="evenodd" clip-rule="evenodd" d="M5.46285 7.01276H10.5371V6.13918H5.46285V7.01276ZM5.46285 4.92376H10.5371V4.05018H5.46285V4.92376ZM5.46285 2.83477H10.5371V1.96119H5.46285V2.83477ZM13.0509 7.15064L13.0509 0.545471H2.94897V7.15064L7.99995 11.4124L13.0509 7.15064Z" fill="#00162E"/>
<path fill-rule="evenodd" clip-rule="evenodd" d="M2.07544 4.56879L0.982239 5.49117L2.07544 6.41352V4.56879Z" fill="#00162E"/>
<path fill-rule="evenodd" clip-rule="evenodd" d="M13.9246 4.56879V6.41352L15.0178 5.49117L13.9246 4.56879Z" fill="#00162E"/>
</svg>
