<svg width="22" height="30" viewBox="0 0 22 30" fill="none" xmlns="http://www.w3.org/2000/svg">
<path d="M11.0083 0C5.67737 0 1.36377 4.33704 1.36377 9.66795V13.3008C1.36377 14.7597 2.51806 15.9375 3.97705 15.9375H5.45366C6.4937 18.0787 8.59727 19.4531 11.0083 19.4531C13.4188 19.4531 15.5227 18.079 16.5629 15.9375H18.0395C18.1786 15.9375 18.312 15.9173 18.4452 15.8967C17.3647 18.9801 14.4562 21.2109 11.0083 21.2109C9.84971 21.2109 9.84496 22.9687 11.0083 22.9687C16.3392 22.9687 20.6762 18.6317 20.6762 13.3008V9.66795C20.6762 4.33704 16.3392 0 11.0083 0ZM16.5454 7.04296C16.5519 7.05561 16.5537 7.07044 16.56 7.08309C15.5746 9.15461 13.4672 10.5469 11.0083 10.5469H4.85595V9.66795C4.85595 9.3652 4.91314 9.07938 4.9555 8.78905H11.0083C13.1353 8.78905 14.8931 7.31243 15.3149 5.30853C14.2075 4.20122 12.6782 3.51562 11.0083 3.51562C8.56493 3.51562 6.43804 4.96874 5.47113 7.04296C5.03683 7.04296 3.96334 7.01137 3.5714 7.07202C4.65193 3.98864 7.5604 1.75781 11.0083 1.75781C14.4562 1.75781 17.3647 3.98864 18.4452 7.07202C18.0532 7.01137 16.9797 7.04296 16.5454 7.04296Z" fill="#172B74"/>
<path d="M19.217 21.4569L19.0588 21.3865C17.0021 23.4432 14.1545 24.7264 11.008 24.7264C8.93257 24.7264 7.72836 22.4375 8.70529 20.8593C7.89664 20.6132 7.15841 20.2441 6.49045 19.7694L2.86936 21.4218C1.44554 21.8964 0.601846 23.4081 0.970868 24.8143L1.83231 29.2968C1.9202 29.701 2.27176 30 2.69364 30H19.3049C19.7269 30 20.0783 29.7011 20.1663 29.2968L21.0276 24.867C21.3967 23.4081 20.5705 21.8964 19.217 21.4569Z" fill="#172B74"/>
</svg>
