<svg width="20" height="14" viewBox="0 0 20 14" fill="none" xmlns="http://www.w3.org/2000/svg">
<path fill-rule="evenodd" clip-rule="evenodd" d="M18.1347 12.2846H1.71786C1.59468 12.2846 1.49059 12.1809 1.49059 12.0573V2.3673L9.55286 7.64412C9.6665 7.71821 9.79604 7.75594 9.92604 7.75594C10.0583 7.75594 10.1901 7.71776 10.3047 7.6414L18.362 2.26458V12.0573C18.362 12.1809 18.2579 12.2846 18.1347 12.2846ZM16.6919 1.73912L9.92276 6.25685L3.02094 1.73912H16.6919ZM19.0982 0.814125C19.015 0.706397 18.9059 0.629125 18.7845 0.586852C18.5536 0.456397 18.2914 0.375488 18.0077 0.375488H1.59091C0.714091 0.375488 0 1.08912 0 1.9664V12.0573C0 12.9346 0.714091 13.6482 1.59091 13.6482H18.0077C18.8845 13.6482 19.5986 12.9346 19.5986 12.0573V1.9664C19.5986 1.51231 19.4045 1.10458 19.0982 0.814125Z" fill="#1A1919"/>
</svg>
