<svg width="19" height="18" viewBox="0 0 19 18" fill="none" xmlns="http://www.w3.org/2000/svg">
<path d="M14.2857 15.8571C14.2857 16.2478 13.9621 16.5714 13.5714 16.5714C13.1808 16.5714 12.8571 16.2478 12.8571 15.8571C12.8571 15.4665 13.1808 15.1429 13.5714 15.1429C13.9621 15.1429 14.2857 15.4665 14.2857 15.8571ZM17.1429 15.8571C17.1429 16.2478 16.8192 16.5714 16.4286 16.5714C16.0379 16.5714 15.7143 16.2478 15.7143 15.8571C15.7143 15.4665 16.0379 15.1429 16.4286 15.1429C16.8192 15.1429 17.1429 15.4665 17.1429 15.8571ZM18.5714 13.3571C18.5714 12.7656 18.0915 12.2857 17.5 12.2857H12.3214L10.8036 13.8036C10.3906 14.2054 9.85491 14.4286 9.28571 14.4286C8.71652 14.4286 8.1808 14.2054 7.76786 13.8036L6.26116 12.2857H1.07143C0.479911 12.2857 0 12.7656 0 13.3571V16.9286C0 17.5201 0.479911 18 1.07143 18H17.5C18.0915 18 18.5714 17.5201 18.5714 16.9286V13.3571ZM14.9442 7.0067C14.8326 6.75 14.5759 6.57143 14.2857 6.57143H11.4286V1.57143C11.4286 1.1808 11.1049 0.857141 10.7143 0.857141H7.85714C7.46652 0.857141 7.14286 1.1808 7.14286 1.57143V6.57143H4.28571C3.99554 6.57143 3.73884 6.75 3.62723 7.0067C3.51563 7.27455 3.57143 7.58705 3.78348 7.78795L8.78348 12.7879C8.91741 12.933 9.10714 13 9.28571 13C9.46429 13 9.65402 12.933 9.78795 12.7879L14.7879 7.78795C15 7.58705 15.0558 7.27455 14.9442 7.0067Z" fill="#00162E"/>
</svg>
