<svg width="21" height="22" viewBox="0 0 21 22" fill="none" xmlns="http://www.w3.org/2000/svg">
<path fill-rule="evenodd" clip-rule="evenodd" d="M7.87103 15.1804C7.63509 14.1397 8.25169 13.0859 9.27417 12.781L11.4755 12.1248C11.3002 11.8585 11.1368 11.5859 10.9997 11.3089C10.404 11.111 9.88124 10.5604 9.62141 9.81732C9.57594 9.68673 9.54109 9.55392 9.51561 9.42111L8.51993 9.12427C7.81915 9.98005 6.91502 10.5764 5.86127 10.5764C4.80747 10.5764 3.90356 9.98005 3.20256 9.12427L0.830976 9.83151C0.3381 9.97846 0 10.4321 0 10.946V11.9122C0 15.1493 2.62387 17.7734 5.86127 17.7734C6.7574 17.7734 7.60319 17.5664 8.36299 17.2068C8.29778 17.0068 8.23949 16.8035 8.19182 16.5946L7.87103 15.1804Z" fill="white"/>
<path fill-rule="evenodd" clip-rule="evenodd" d="M20.0444 13.478L17.5904 12.7468C16.8503 13.6343 15.8897 14.3012 14.7634 14.3012C13.6371 14.3012 12.6763 13.6343 11.9358 12.7468L9.48234 13.478C8.82255 13.6746 8.42837 14.3491 8.58048 15.02L8.90149 16.4336C9.52338 19.171 11.9561 21.1136 14.7634 21.1136C17.5704 21.1136 20.0032 19.171 20.6253 16.434L20.9464 15.02C21.0982 14.3491 20.7042 13.6746 20.0444 13.478Z" fill="white"/>
<path fill-rule="evenodd" clip-rule="evenodd" d="M2.18161 6.71469C2.40659 6.99802 2.69327 7.16852 2.96684 7.16341C3.58498 8.58097 4.67465 9.7984 5.91932 9.7984C7.164 9.7984 8.25367 8.58097 8.87175 7.16341C9.1456 7.16852 9.43206 6.99802 9.65704 6.71469C9.77612 6.56502 9.87941 6.38721 9.95081 6.18214C10.0845 5.79813 10.0825 5.41746 9.9772 5.12528C9.89428 4.89626 9.7491 4.72043 9.5458 4.6488C9.51254 4.6597 9.4795 4.67162 9.44358 4.67429C9.43245 4.67519 9.42139 4.67542 9.41032 4.67542C9.34425 4.67542 9.28307 4.65544 9.22563 4.62752C9.11609 4.57456 9.02721 4.48165 8.99083 4.35991C8.9822 4.33068 8.76051 3.64205 7.45108 3.64205C7.32536 3.64205 7.19215 3.64846 7.05179 3.66135C7.05179 3.66135 6.91501 3.67355 6.70393 3.67355C6.00554 3.67355 5.06485 3.55272 4.55007 2.97845C4.44098 2.85699 4.35721 2.72083 4.29932 2.57275C3.81512 2.88026 3.11917 3.46111 2.85134 4.3741C2.81723 4.48943 2.73675 4.57632 2.63697 4.62996C2.57487 4.66345 2.50728 4.68672 2.43366 4.68672C2.41681 4.68672 2.39972 4.68581 2.38247 4.68359C2.34739 4.67917 2.31595 4.66566 2.28377 4.65346C2.08558 4.72707 1.94323 4.89978 1.86167 5.12528C1.7561 5.41746 1.75412 5.79813 1.88783 6.18214C1.9594 6.38721 2.06253 6.56502 2.18161 6.71469Z" fill="white"/>
<path fill-rule="evenodd" clip-rule="evenodd" d="M4.64498 1.89734C4.51262 3.10564 6.03132 3.23799 6.70394 3.23799C6.8926 3.23799 7.0148 3.22755 7.0148 3.22755C7.16975 3.21313 7.31521 3.20649 7.45109 3.20649C9.15425 3.20649 9.41096 4.24582 9.41096 4.24582L9.5163 3.4632C9.73822 1.81862 8.59423 0.302137 6.95203 0.0638156C6.85628 0.0500805 6.76025 0.0432129 6.66472 0.0432129C6.116 0.0432129 5.5868 0.268878 5.20568 0.675256L5.17685 0.706075C4.92479 0.591029 4.65582 0.534499 4.38821 0.534499C4.00266 0.534499 3.61978 0.651759 3.29411 0.881226C2.67444 1.31803 2.32215 2.04207 2.36029 2.79898L2.43345 4.25116C2.92877 2.5644 4.64498 1.89734 4.64498 1.89734Z" fill="white"/>
<path fill-rule="evenodd" clip-rule="evenodd" d="M19.2751 8.3704C19.1849 8.10858 19.0326 7.86027 18.7907 7.82655C18.7384 7.81923 18.675 7.83722 18.6351 7.83722C18.5746 7.83722 18.4353 7.76208 18.3994 7.73523C17.5977 7.12952 16.2453 6.72314 14.8038 6.72314C13.3622 6.72314 12.0114 7.12952 11.2097 7.73523C11.1738 7.76208 11.0348 7.83722 10.9742 7.83722C10.9341 7.83722 10.8707 7.81923 10.8183 7.82655C10.5765 7.86027 10.4242 8.10858 10.3339 8.3704C10.2224 8.69187 10.2229 9.10602 10.3686 9.52437C10.4452 9.74499 10.5555 9.937 10.682 10.0999C10.9325 10.4216 11.2551 10.6163 11.5627 10.6105C12.2397 12.1633 13.4443 13.5191 14.8044 13.5191C16.1648 13.5191 17.3693 12.1633 18.0464 10.6105C18.3539 10.6163 18.6765 10.4216 18.9271 10.0999C19.0536 9.937 19.1638 9.74499 19.2405 9.52437C19.3862 9.10602 19.3866 8.69187 19.2751 8.3704Z" fill="white"/>
<path fill-rule="evenodd" clip-rule="evenodd" d="M12.0952 6.72537L12.2599 5.26014L12.5408 6.58082C13.2201 6.38461 13.9994 6.27177 14.8304 6.27177C15.272 6.27177 15.6975 6.30566 16.103 6.36486L16.4974 4.42894L16.6484 6.4631C17.4986 6.64824 18.2265 6.95592 18.7444 7.34703C18.8058 7.06881 18.8401 6.781 18.8401 6.48416C18.8401 5.07211 18.1089 3.83254 17.0055 3.1182C17.0095 3.07364 17.0213 3.03153 17.0213 2.98607C17.0213 2.82335 16.9887 2.66749 16.9426 2.51675C16.6994 1.72369 15.8662 1.13574 14.8661 1.13574C13.8839 1.13574 13.0645 1.70331 12.8051 2.4748C12.7497 2.63843 12.7111 2.80785 12.7111 2.98607C12.7111 3.01757 12.72 3.04663 12.7218 3.07745C11.5818 3.78486 10.8202 5.04373 10.8202 6.48393C10.8202 6.781 10.855 7.06881 10.9164 7.34703C11.2363 7.10513 11.6363 6.89451 12.0952 6.72537Z" fill="white"/>
</svg>
