<svg width="22" height="18" viewBox="0 0 22 18" fill="none" xmlns="http://www.w3.org/2000/svg">
<path d="M21.6964 2.89286C21.0982 3.76786 20.375 4.51339 19.5268 5.12946C19.5357 5.25446 19.5402 5.44196 19.5402 5.69196C19.5402 6.85268 19.3705 8.01339 19.0313 9.17411C18.692 10.3259 18.1741 11.433 17.4777 12.4955C16.7902 13.558 15.9688 14.5 15.0134 15.3214C14.058 16.1339 12.9063 16.7857 11.558 17.2768C10.2098 17.7589 8.76786 18 7.23214 18C4.8125 18 2.59821 17.3527 0.589286 16.058C0.901786 16.0937 1.25 16.1116 1.63393 16.1116C3.64286 16.1116 5.43304 15.4955 7.00446 14.2634C6.06696 14.2455 5.22768 13.9598 4.48661 13.4062C3.74554 12.8437 3.23661 12.1295 2.95982 11.2634C3.25446 11.308 3.52679 11.3304 3.77679 11.3304C4.16071 11.3304 4.54018 11.2812 4.91518 11.183C3.91518 10.9777 3.08482 10.4821 2.42411 9.69643C1.77232 8.90179 1.44643 7.98214 1.44643 6.9375V6.88393C2.05357 7.22321 2.70536 7.40625 3.40179 7.43303C2.8125 7.04018 2.34375 6.52678 1.99554 5.89286C1.64732 5.25893 1.47321 4.57143 1.47321 3.83036C1.47321 3.04464 1.66964 2.31696 2.0625 1.64732C3.14286 2.97768 4.45536 4.04464 6 4.84821C7.55357 5.64286 9.21429 6.08482 10.9821 6.17411C10.9107 5.83482 10.875 5.50446 10.875 5.18303C10.875 3.98661 11.2946 2.96875 12.1339 2.12946C12.9821 1.28125 14.0045 0.857142 15.2009 0.857142C16.4509 0.857142 17.5045 1.3125 18.3616 2.22321C19.3348 2.03571 20.25 1.6875 21.1071 1.17857C20.7768 2.20536 20.1429 3 19.2054 3.5625C20.0357 3.47321 20.8661 3.25 21.6964 2.89286Z" fill="#2379BC"/>
</svg>
