<svg width="21" height="22" viewBox="0 0 21 22" fill="none" xmlns="http://www.w3.org/2000/svg">
<path fill-rule="evenodd" clip-rule="evenodd" d="M1.12085 6.21515V13.4423C1.3643 13.0961 1.62351 12.7699 1.88933 12.4794C2.83662 11.4406 3.98266 10.6386 5.29625 10.0935C5.9129 9.83653 6.56295 9.63997 7.22867 9.51036C7.87883 9.38308 8.54457 9.31826 9.21029 9.31826C9.40468 9.31826 9.59907 9.32273 9.79117 9.33387V6.21515C9.79117 5.72143 9.39128 5.32153 8.89755 5.32153H2.01447C1.52074 5.32153 1.12085 5.72143 1.12085 6.21515Z" fill="white"/>
<path fill-rule="evenodd" clip-rule="evenodd" d="M18.1576 17.7942C17.9521 17.6646 17.7666 17.4837 17.5924 17.2357C17.5411 17.1643 17.4204 16.9744 17.2752 16.7241C17.2819 17.0123 17.2752 17.238 17.2685 17.3251C17.2394 17.7273 17.1345 18.0445 16.9468 18.2992C16.7502 18.565 16.4687 18.7527 16.109 18.8532L16.08 18.8622L16.0689 18.8644C15.8074 18.9336 15.5326 18.956 15.2668 18.9782C15.0054 19.0006 14.7574 19.0208 14.5273 19.0788C14.4648 19.0944 14.3978 19.1034 14.333 19.1034C14.0493 19.1034 13.7879 18.9492 13.6515 18.699C13.5377 18.4913 13.3835 18.2969 13.2182 18.0914C12.9613 17.7674 12.6954 17.4346 12.5882 17.0191C12.4563 16.512 12.5993 16.016 13.0104 15.5491C12.8206 15.5982 12.6373 15.6228 12.4697 15.6228C12.0028 15.6228 11.6141 15.4418 11.3148 15.0821C11.0914 14.8141 10.9506 14.4924 10.8166 14.1818C10.7116 13.9405 10.6132 13.7127 10.4837 13.5138C10.2894 13.2168 10.3207 12.8258 10.5619 12.5621C10.7228 12.3878 10.8568 12.1778 10.9997 11.9567C11.2902 11.5076 11.6186 10.996 12.2128 10.8307C12.3358 10.7973 12.4653 10.7794 12.5972 10.7794C12.7423 10.7794 12.8898 10.7994 13.044 10.8419C12.997 10.7548 12.959 10.6677 12.93 10.5805C12.5904 10.4398 12.2419 10.3213 11.889 10.2253C11.2009 10.0377 10.4971 9.92818 9.79117 9.89023C9.59678 9.87898 9.40468 9.87451 9.21029 9.87451C6.71042 9.87451 4.14792 10.8329 2.30266 12.8548C1.90047 13.2971 1.48497 13.8534 1.12303 14.4745C0.00600529 16.3868 -0.623967 18.9046 1.07393 20.531C1.40228 20.846 1.8 21.056 2.22891 21.056H16.1917C17.7979 21.056 18.3252 19.4832 18.2917 17.868C18.2448 17.8456 18.2001 17.8211 18.1576 17.7942ZM1.62351 17.2894C1.77545 16.4762 2.09715 15.6987 2.51037 14.9861C2.79191 14.4969 3.12034 14.0343 3.4979 13.6144C4.51662 12.475 5.86143 11.6617 7.34037 11.2775C8.05085 11.0921 8.81715 11.0117 9.55436 11.0899C9.66377 11.1011 9.69061 11.2507 9.59013 11.2976C9.59013 11.2976 9.58784 11.2976 9.58784 11.2999C9.40686 11.3848 9.22372 11.463 9.04274 11.5479C8.68529 11.7154 8.3301 11.8919 7.98377 12.0818C7.28683 12.4616 6.6188 12.8928 5.99994 13.3888C4.89188 14.2756 3.91558 15.3301 3.14489 16.5231C2.61322 17.3453 2.17755 18.2344 1.87375 19.166C1.84015 19.2709 1.69047 19.2732 1.65481 19.1682V19.166C1.4626 18.5785 1.51181 17.8859 1.62351 17.2894Z" fill="white"/>
<path fill-rule="evenodd" clip-rule="evenodd" d="M15.3673 10.2589H15.3718C15.3785 10.2589 15.3807 10.2655 15.3829 10.2678L16.0531 11.9478L16.0733 11.9969C16.109 12.084 16.185 12.1444 16.2721 12.1623C16.2878 12.1644 16.3056 12.1667 16.3235 12.1667C16.3481 12.1667 16.3727 12.1644 16.3972 12.1578C16.462 12.1399 16.5178 12.0975 16.5536 12.0372C16.9043 11.4451 17.054 10.0868 17.063 9.75402C17.0964 8.7308 16.4173 8.6034 15.698 8.46944C15.4277 8.41806 15.1484 8.36657 14.8803 8.26612C14.8557 8.25715 14.8289 8.25269 14.8044 8.25269C14.7843 8.25269 14.7641 8.25486 14.7462 8.26162C14.6971 8.27505 14.6547 8.30636 14.6257 8.34878C14.4648 8.58332 14.2637 8.78665 14.0715 8.98322C13.7074 9.3563 13.3567 9.71146 13.4058 10.1829C13.417 10.2968 13.4528 10.4153 13.5153 10.5426C13.5577 10.6297 13.6159 10.7213 13.6873 10.8174C13.7253 10.8666 13.7856 10.9425 13.8638 11.0363C14.2101 11.4428 14.9005 12.1667 15.4098 12.3968C15.4456 12.4125 15.4835 12.4214 15.5193 12.4214C15.5438 12.4214 15.5662 12.4191 15.5885 12.4125C15.6221 12.4036 15.6532 12.3878 15.6779 12.3678C15.7605 12.3053 15.8029 12.198 15.7784 12.0908L15.7739 12.0774L15.6645 11.6082L15.3539 10.2789C15.3561 10.27 15.3539 10.2611 15.3673 10.2589Z" fill="white"/>
<path fill-rule="evenodd" clip-rule="evenodd" d="M20.1035 14.0344C19.851 13.9607 18.9552 13.7686 18.2604 13.7686C18.0795 13.7686 17.9141 13.782 17.7756 13.8133C17.722 13.8267 17.6728 13.8534 17.6393 13.8937C17.608 13.9271 17.5858 13.9719 17.5746 14.0188C17.5545 14.1171 17.588 14.2177 17.6662 14.2824L18.0326 14.5862L19.0981 15.4731C19.1049 15.4776 19.1049 15.482 19.1026 15.4843C19.1004 15.491 19.0959 15.4954 19.0915 15.4977H19.0893C19.087 15.4977 19.0848 15.4977 19.0804 15.4954L18.2202 14.9749L17.7801 14.7069L17.4897 14.5304C17.4472 14.5036 17.3981 14.4901 17.3511 14.4901H17.3467C17.3243 14.4901 17.3021 14.4946 17.2797 14.4991C17.1523 14.5349 17.0697 14.6555 17.0831 14.7873C17.159 15.4709 17.8606 16.6438 18.0527 16.9163C18.1152 17.0034 18.1778 17.0793 18.2426 17.1465C18.3386 17.2447 18.4392 17.3207 18.5464 17.372C18.638 17.4167 18.7318 17.4436 18.8323 17.4525C18.8614 17.4547 18.8904 17.457 18.9194 17.457C19.02 17.457 19.1273 17.4413 19.239 17.4101C19.4579 17.3498 19.6813 17.2381 19.9158 17.1219C20.1616 16.999 20.4163 16.8738 20.6911 16.7913C20.7871 16.7621 20.8519 16.6728 20.8474 16.5723C20.8363 16.2886 20.8721 16.0049 20.9077 15.7323C20.9971 15.004 21.0842 14.3181 20.1035 14.0344Z" fill="white"/>
<path fill-rule="evenodd" clip-rule="evenodd" d="M20.8742 10.4465C20.8787 10.346 20.8139 10.2566 20.7178 10.2298C20.4453 10.1494 20.1884 10.0243 19.9427 9.90364C19.5964 9.73379 19.268 9.573 18.9485 9.573C18.8703 9.573 18.7943 9.58196 18.7184 9.60422C18.4861 9.66901 18.2761 9.83656 18.0817 10.1181C17.8918 10.3906 17.197 11.5679 17.1233 12.2516C17.1143 12.3409 17.1478 12.4259 17.2149 12.4839C17.264 12.5263 17.3266 12.5487 17.3891 12.5487C17.4138 12.5487 17.436 12.5465 17.4607 12.5398C17.4852 12.5331 17.5076 12.5219 17.5299 12.5085L19.116 11.5345C19.1183 11.5323 19.1205 11.5323 19.1205 11.5323H19.1228C19.1294 11.5323 19.1339 11.5412 19.1339 11.5412C19.1384 11.55 19.1339 11.5545 19.1294 11.5568L17.7041 12.7542C17.6259 12.8213 17.5924 12.9241 17.617 13.0245C17.6416 13.1251 17.7197 13.1988 17.818 13.2212C17.9544 13.2502 18.1152 13.2636 18.2827 13.2636C18.5553 13.2636 18.8457 13.2345 19.0803 13.201C19.5583 13.1341 19.965 13.0402 20.1147 12.9978C20.1258 12.9955 20.1371 12.9911 20.146 12.9889C21.1266 12.6984 21.0351 12.0126 20.9368 11.2887C20.9011 11.0117 20.8631 10.7302 20.8742 10.4465Z" fill="white"/>
<path fill-rule="evenodd" clip-rule="evenodd" d="M12.5949 11.3401C12.5122 11.3401 12.4341 11.3513 12.3603 11.3714C11.9694 11.4809 11.7258 11.8606 11.4667 12.2628C11.317 12.4952 11.1629 12.7342 10.9707 12.9442C10.9037 13.0179 10.8948 13.1273 10.9483 13.2123C11.1048 13.4513 11.2165 13.7105 11.3282 13.9651C11.5739 14.5304 11.8085 15.071 12.4697 15.071C12.5927 15.071 12.7289 15.0531 12.8853 15.0128C12.8943 15.0106 12.9054 15.0085 12.9165 15.004C13.0662 14.9614 13.4639 14.8342 13.9063 14.6442C14.2593 14.4924 14.7351 14.26 14.9965 14.0098C15.0702 13.9384 15.097 13.8356 15.068 13.7372C15.0367 13.6389 14.954 13.5675 14.8535 13.5519L13.0148 13.2637C13.0082 13.2637 13.0037 13.2614 13.0037 13.2524C13.0037 13.2524 13.0037 13.239 13.0127 13.2368H13.0193L14.8803 13.2503H14.8826C14.9071 13.2503 14.9316 13.248 14.9563 13.2413C15.0412 13.2168 15.1105 13.152 15.1372 13.067C15.1663 12.9821 15.1506 12.8928 15.097 12.8213C14.6815 12.2718 13.4773 11.6238 13.1757 11.4899C12.959 11.387 12.7692 11.3401 12.5949 11.3401Z" fill="white"/>
<path fill-rule="evenodd" clip-rule="evenodd" d="M16.9513 13.8599C17.016 13.7728 17.0652 13.6745 17.0898 13.565C17.1077 13.4824 17.1143 13.3952 17.1032 13.3059C17.0563 12.9216 16.7301 12.6423 16.3526 12.6423H16.3481C16.319 12.6423 16.2878 12.6446 16.2565 12.6491C16.1761 12.6581 16.1001 12.6803 16.0308 12.7139C15.7404 12.8479 15.5573 13.1584 15.5997 13.4935C15.6466 13.8778 15.9728 14.1571 16.3503 14.1571C16.3816 14.1571 16.4129 14.1548 16.4441 14.1503C16.6541 14.1258 16.8329 14.0163 16.9513 13.8599Z" fill="white"/>
<mask id="mask0" mask-type="alpha" maskUnits="userSpaceOnUse" x="4" y="0" width="13" height="19">
<path fill-rule="evenodd" clip-rule="evenodd" d="M16.7212 0.0239258H4.10738L4.10738 18.5491H16.7212V0.0239258Z" fill="white"/>
</mask>
<g mask="url(#mask0)">
<path fill-rule="evenodd" clip-rule="evenodd" d="M14.1408 18.4353C14.1789 18.5068 14.2548 18.5492 14.333 18.5492C14.3508 18.5492 14.3687 18.547 14.3889 18.5426C14.6636 18.4711 14.9474 18.4487 15.2222 18.4264C15.4857 18.404 15.7337 18.384 15.9504 18.3236C16.4352 18.1896 16.6698 17.8701 16.7122 17.2893C16.7368 16.9587 16.7301 15.5914 16.4419 14.9658C16.3972 14.8698 16.3012 14.8117 16.1983 14.8117C16.1738 14.8117 16.1493 14.814 16.1247 14.8229C16.0531 14.843 15.9951 14.8899 15.9593 14.9569L15.0947 16.6057C15.0926 16.6123 15.0881 16.6123 15.0881 16.6123H15.0858C15.0813 16.6123 15.0746 16.6101 15.0725 16.6057C15.0702 16.6034 15.068 16.6012 15.0702 16.5923L15.6801 14.834C15.7136 14.7402 15.6912 14.6352 15.622 14.5615C15.5707 14.5057 15.4991 14.4766 15.4277 14.4766C15.3986 14.4766 15.3718 14.481 15.3428 14.49C14.6904 14.7067 13.6895 15.6383 13.4639 15.8818C12.7692 16.6347 13.2003 17.1753 13.656 17.7472C13.8281 17.9617 14.0045 18.1851 14.1408 18.4353Z" fill="white"/>
<path fill-rule="evenodd" clip-rule="evenodd" d="M5.17113 2.93999C5.28284 2.71212 5.6068 2.71212 5.72068 2.9377C5.91728 3.33312 6.16749 3.89828 6.27255 4.41437C7.39853 3.75985 6.47579 1.50344 5.86589 0.285863C5.68949 -0.0648538 5.18683 -0.0626756 5.01481 0.288153C4.42052 1.50115 3.52462 3.73969 4.63499 4.40541C4.73555 3.89164 4.97903 3.33312 5.17113 2.93999Z" fill="white"/>
</g>
</svg>
