<svg width="36" height="32" viewBox="0 0 36 32" fill="none" xmlns="http://www.w3.org/2000/svg">
<path d="M33 15.5093H29.25C28.8522 15.5093 28.4706 15.6673 28.1893 15.9486C27.908 16.2299 27.75 16.6115 27.75 17.0093C27.75 17.4071 27.908 17.7886 28.1893 18.0699C28.4706 18.3512 28.8522 18.5093 29.25 18.5093H32.625C32.7245 18.5093 32.8198 18.5488 32.8902 18.6191C32.9605 18.6894 33 18.7848 33 18.8843V27.8843C33 27.9837 32.9605 28.0791 32.8902 28.1494C32.8198 28.2198 32.7245 28.2593 32.625 28.2593H3.375C3.27554 28.2593 3.18016 28.2198 3.10984 28.1494C3.03951 28.0791 3 27.9837 3 27.8843V18.8843C3 18.7848 3.03951 18.6894 3.10984 18.6191C3.18016 18.5488 3.27554 18.5093 3.375 18.5093H8.25C8.64782 18.5093 9.02936 18.3512 9.31066 18.0699C9.59196 17.7886 9.75 17.4071 9.75 17.0093C9.75 16.6115 9.59196 16.2299 9.31066 15.9486C9.02936 15.6673 8.64782 15.5093 8.25 15.5093H3C2.20435 15.5093 1.44129 15.8253 0.87868 16.388C0.316071 16.9506 0 17.7136 0 18.5093L0 28.2593C0 29.0549 0.316071 29.818 0.87868 30.3806C1.44129 30.9432 2.20435 31.2593 3 31.2593H33C33.7957 31.2593 34.5587 30.9432 35.1213 30.3806C35.6839 29.818 36 29.0549 36 28.2593V18.5093C36 17.7136 35.6839 16.9506 35.1213 16.388C34.5587 15.8253 33.7957 15.5093 33 15.5093Z" fill="white"/>
<path d="M12.1633 23.6048C12.2589 23.6048 12.3536 23.5864 12.4423 23.5508L17.7448 21.4298C17.8397 21.3919 17.9263 21.3358 17.9998 21.2648L29.7178 9.54982C29.8584 9.40918 29.9374 9.21845 29.9374 9.01957C29.9374 8.8207 29.8584 8.62997 29.7178 8.48932L26.5348 5.30182C26.3918 5.16581 26.2019 5.08997 26.0045 5.08997C25.8072 5.08997 25.6173 5.16581 25.4743 5.30182L13.7548 17.0213C13.6828 17.0932 13.6261 17.1789 13.5883 17.2733L11.4673 22.5773C11.422 22.691 11.4052 22.8141 11.4184 22.9358C11.4317 23.0575 11.4745 23.1741 11.5431 23.2754C11.6118 23.3768 11.7042 23.4598 11.8123 23.5172C11.9204 23.5746 12.0409 23.6047 12.1633 23.6048Z" fill="white"/>
<path d="M30.7785 7.42137C30.9191 7.56198 31.1098 7.64096 31.3087 7.64096C31.5076 7.64096 31.6983 7.56198 31.839 7.42137L33.4305 5.82987C33.9929 5.26729 34.3088 4.50437 34.3088 3.70888C34.3088 2.91338 33.9929 2.15046 33.4305 1.58788C32.859 1.04247 32.0994 0.738159 31.3095 0.738159C30.5195 0.738159 29.7599 1.04247 29.1885 1.58788L27.6 3.18088C27.4594 3.32152 27.3804 3.51225 27.3804 3.71113C27.3804 3.91 27.4594 4.10073 27.6 4.24137L30.7785 7.42137Z" fill="white"/>
</svg>
