<svg width="21" height="21" viewBox="0 0 21 21" fill="none" xmlns="http://www.w3.org/2000/svg">
<path d="M16.7143 0.142856C17.7768 0.142856 18.683 0.52232 19.433 1.28125C20.192 2.03125 20.5714 2.9375 20.5714 4V16.8571C20.5714 17.9196 20.192 18.8259 19.433 19.5759C18.683 20.3348 17.7768 20.7143 16.7143 20.7143H14.1964V12.7455H16.8616L17.2634 9.63839H14.1964V7.65625C14.1964 7.15625 14.2991 6.78125 14.5045 6.53125C14.7188 6.28125 15.1295 6.15625 15.7366 6.15625L17.3705 6.14286V3.37053C16.808 3.29018 16.0134 3.25 14.9866 3.25C13.7723 3.25 12.7991 3.60714 12.067 4.32143C11.3438 5.03571 10.9821 6.04464 10.9821 7.34821V9.63839H8.30357V12.7455H10.9821V20.7143H3.85714C2.79464 20.7143 1.88393 20.3348 1.125 19.5759C0.375 18.8259 0 17.9196 0 16.8571V4C0 2.9375 0.375 2.03125 1.125 1.28125C1.88393 0.52232 2.79464 0.142856 3.85714 0.142856H16.7143Z" fill="#325A9D"/>
</svg>
