<svg width="27" height="24" viewBox="0 0 27 24" fill="none" xmlns="http://www.w3.org/2000/svg">
<path fill-rule="evenodd" clip-rule="evenodd" d="M18.1484 9.39136H1.02552C0.712161 9.39136 0.408433 9.52196 0.215124 9.76185C-0.0164563 10.0493 -0.059861 10.4251 0.079087 10.7443L0.263292 11.4364C0.312255 11.6205 0.483015 11.749 0.678495 11.749H6.57497C7.00277 11.749 7.37092 12.0688 7.39109 12.4844C7.41258 12.9282 7.04898 13.2945 6.59742 13.2945H1.72338C1.36032 13.2945 1.16272 13.7048 1.39271 13.978C2.23413 14.977 3.48726 15.6129 4.85308 15.6503C4.89934 15.6516 4.94571 15.6522 4.99213 15.6522H14.1818C14.2282 15.6522 14.2745 15.6516 14.3209 15.6503C16.3778 15.5941 18.1802 14.1807 18.7038 12.2131L19.0947 10.7443C19.2338 10.4252 19.1904 10.0495 18.9589 9.76201C18.7656 9.52206 18.4618 9.39136 18.1484 9.39136Z" fill="white"/>
<path fill-rule="evenodd" clip-rule="evenodd" d="M5.32465 6.086L4.88469 7.07853C4.70473 7.48453 4.88195 7.96239 5.2806 8.1457C5.38633 8.19439 5.49707 8.21739 5.60601 8.21739C5.90774 8.21739 6.19602 8.0408 6.32829 7.74249L6.76824 6.74996C7.26988 5.61835 7.07498 4.28371 6.27152 3.34981C5.8276 2.83379 5.76471 2.09336 6.11503 1.50732L6.28302 1.22631C6.51046 0.845779 6.39197 0.349487 6.01838 0.117759C5.64484 -0.113915 5.15751 0.00678551 4.93006 0.387321L4.76213 0.668329C4.05015 1.85943 4.17798 3.36437 5.08027 4.41317C5.47554 4.87265 5.57151 5.5293 5.32465 6.086Z" fill="white"/>
<path fill-rule="evenodd" clip-rule="evenodd" d="M8.84644 6.08599L8.40647 7.07853C8.22645 7.48453 8.40373 7.96239 8.80233 8.1457C8.90811 8.19439 9.0188 8.21739 9.12781 8.21739C9.42954 8.21739 9.71782 8.0408 9.85009 7.74249L10.2901 6.74996C10.7917 5.61834 10.5967 4.2837 9.79332 3.3498C9.3494 2.83379 9.28651 2.09335 9.63678 1.50737L9.80477 1.22636C10.0323 0.845821 9.91382 0.349529 9.54028 0.1178C9.16674 -0.113928 8.67945 0.00677255 8.4519 0.387255L8.28391 0.668317C7.57191 1.85942 7.6998 3.36437 8.60211 4.41316C8.99733 4.87264 9.09319 5.52924 8.84644 6.08599Z" fill="white"/>
<path fill-rule="evenodd" clip-rule="evenodd" d="M12.3682 6.086L11.9282 7.07853C11.7483 7.48453 11.9255 7.96239 12.3241 8.1457C12.4299 8.19439 12.5405 8.21739 12.6495 8.21739C12.9513 8.21739 13.2395 8.0408 13.3718 7.74249L13.8118 6.74996C14.3134 5.61835 14.1185 4.28371 13.315 3.34981C12.8711 2.83379 12.8082 2.09336 13.1586 1.50732L13.3265 1.22631C13.554 0.845779 13.4355 0.349487 13.0619 0.117759C12.6883 -0.113915 12.201 0.00678551 11.9736 0.387321L11.8056 0.668329C11.0937 1.85943 11.2215 3.36437 12.1238 4.41317C12.5191 4.87265 12.615 5.5293 12.3682 6.086Z" fill="white"/>
<path fill-rule="evenodd" clip-rule="evenodd" d="M26.1827 11.3479H20.6992C20.384 11.3479 20.1086 11.5584 20.0297 11.8598L19.9823 12.0403C19.9815 12.0433 19.9807 12.0464 19.9799 12.0494C19.8646 12.4856 20.1903 12.9131 20.6467 12.9131H26.2075C26.6571 12.9131 27.0192 12.5434 26.9992 12.0951C26.9804 11.6728 26.6108 11.3479 26.1827 11.3479Z" fill="white"/>
<path fill-rule="evenodd" clip-rule="evenodd" d="M16.8242 22.2303H15.7325C16.1539 21.8784 16.3861 21.3878 16.3861 20.8146C16.3861 19.666 15.4032 18.2715 14.8172 17.5423C14.6512 17.3358 14.408 17.2173 14.15 17.2173C13.892 17.2173 13.6488 17.3358 13.4826 17.5424C12.8968 18.2715 11.9139 19.666 11.9139 20.8146C11.9139 21.3877 12.1462 21.8784 12.5675 22.2303H10.7602C11.1816 21.8784 11.4138 21.3878 11.4138 20.8146C11.4138 19.666 10.431 18.2715 9.84518 17.5425C9.6791 17.3358 9.43588 17.2173 9.17776 17.2173C8.9197 17.2173 8.67643 17.3358 8.51051 17.5424C7.92462 18.2714 6.94171 19.6659 6.94171 20.8146C6.94171 21.3877 7.17395 21.8784 7.59527 22.2303H5.87874C6.30011 21.8784 6.53236 21.3878 6.53236 20.8146C6.53236 19.666 5.5495 18.2715 4.96372 17.5425C4.79763 17.3358 4.55441 17.2173 4.2963 17.2173C4.03824 17.2173 3.79497 17.3358 3.62904 17.5424C3.04316 18.2714 2.06025 19.6659 2.06025 20.8146C2.06025 21.3877 2.29254 21.8784 2.71381 22.2303H1.56707C1.13383 22.2303 0.782593 22.5973 0.782593 23.0499C0.782593 23.5025 1.13383 23.8695 1.56707 23.8695H16.8242C17.2574 23.8695 17.6087 23.5025 17.6087 23.0499C17.6087 22.5973 17.2574 22.2303 16.8242 22.2303Z" fill="white"/>
</svg>
