<svg width="8" height="14" viewBox="0 0 8 14" fill="none" xmlns="http://www.w3.org/2000/svg">
<path d="M0.03125 7.28571C0.03125 7.17857 0.0848212 7.05804 0.165178 6.97768L6.40625 0.736606C6.48661 0.65625 6.60714 0.602677 6.71429 0.602677C6.82143 0.602677 6.94196 0.65625 7.02232 0.736606L7.69196 1.40625C7.77232 1.48661 7.82589 1.60714 7.82589 1.71428C7.82589 1.82143 7.77232 1.94196 7.69196 2.02232L2.42857 7.28571L7.69196 12.5491C7.77232 12.6295 7.82589 12.75 7.82589 12.8571C7.82589 12.9777 7.77232 13.0848 7.69196 13.1652L7.02232 13.8348C6.94196 13.9152 6.82143 13.9687 6.71429 13.9687C6.60714 13.9687 6.48661 13.9152 6.40625 13.8348L0.165178 7.59375C0.0848212 7.51339 0.03125 7.39286 0.03125 7.28571Z" fill="#00162E"/>
</svg>
