<svg width="28" height="28" viewBox="0 0 28 28" fill="none" xmlns="http://www.w3.org/2000/svg">
<path fill-rule="evenodd" clip-rule="evenodd" d="M7.07421 7.0769C7.07421 7.6704 6.59321 8.15111 6 8.15111C5.40678 8.15111 4.92578 7.6704 4.92578 7.0769C4.92578 6.48369 5.40678 6.00269 6 6.00269C6.59321 6.00269 7.07421 6.48369 7.07421 7.0769Z" fill="#00162E"/>
<path fill-rule="evenodd" clip-rule="evenodd" d="M10.6572 7.0769C10.6572 7.6704 10.1762 8.15111 9.583 8.15111C8.98979 8.15111 8.50879 7.6704 8.50879 7.0769C8.50879 6.48369 8.98979 6.00269 9.583 6.00269C10.1762 6.00269 10.6572 6.48369 10.6572 7.0769Z" fill="#00162E"/>
<mask id="mask0" mask-type="alpha" maskUnits="userSpaceOnUse" x="0" y="0" width="28" height="28">
<path fill-rule="evenodd" clip-rule="evenodd" d="M0.00439453 0.134033L0.00439453 27.9998H27.9602V0.134033L0.00439453 0.134033L0.00439453 0.134033Z" fill="white"/>
</mask>
<g mask="url(#mask0)">
<path fill-rule="evenodd" clip-rule="evenodd" d="M14.24 7.0769C14.24 7.6704 13.759 8.15111 13.1658 8.15111C12.5723 8.15111 12.0916 7.6704 12.0916 7.0769C12.0916 6.48369 12.5723 6.00269 13.1658 6.00269C13.759 6.00269 14.24 6.48369 14.24 7.0769Z" fill="#00162E"/>
<path fill-rule="evenodd" clip-rule="evenodd" d="M2.74271 0.134033H16.423C17.9372 0.134033 19.1657 1.36839 19.1657 2.87675V8.7626H17.2514V2.87675C17.2514 2.41975 16.88 2.04832 16.423 2.04832H2.74271C2.28571 2.04832 1.91436 2.41975 1.91436 2.87675V11.1683C1.91436 11.6254 2.28571 11.9967 2.74271 11.9967H4.09707V14.151L6.23993 12.0082V14.7169L3.93721 17.0196C3.74271 17.2141 3.48579 17.3226 3.2115 17.3226C2.94864 17.3226 2.69729 17.2255 2.50864 17.0483C2.30271 16.8539 2.18279 16.5796 2.18279 16.2939V13.8539C0.937214 13.5969 0 12.4884 0 11.1683V2.8826C0 1.36839 1.2285 0.134033 2.74271 0.134033Z" fill="#00162E"/>
<path fill-rule="evenodd" clip-rule="evenodd" d="M25.903 10.6541H10.0916C8.94873 10.6541 8.02295 11.5796 8.02295 12.7224V22.3053C8.02295 23.4481 8.94873 24.3739 10.0916 24.3739H21.3829L24.92 27.9111C25.1087 28.0996 25.4342 27.9682 25.4342 27.6998V24.3739H25.8915C27.0344 24.3739 27.9602 23.4481 27.9602 22.3053V12.7224C27.9658 11.5796 27.04 10.6541 25.903 10.6541ZM18.9373 20.9856C18.9373 21.1284 18.8173 21.2483 18.6744 21.2483H12.3257C12.1829 21.2483 12.0629 21.1284 12.0629 20.9856V19.9398C12.0629 19.7969 12.1829 19.6769 12.3257 19.6769H18.6686C18.8114 19.6769 18.9314 19.7969 18.9314 19.9398V20.9856H18.9373ZM23.9314 18.031C23.9314 18.1738 23.8114 18.2938 23.6686 18.2938H12.3257C12.1829 18.2938 12.0629 18.1738 12.0629 18.031V16.9856C12.0629 16.8427 12.1829 16.7224 12.3257 16.7224H23.6686C23.8114 16.7224 23.9314 16.8427 23.9314 16.9856V18.031ZM23.9314 15.0826C23.9314 15.2255 23.8114 15.3455 23.6686 15.3455H12.3257C12.1829 15.3455 12.0629 15.2255 12.0629 15.0826V14.0368C12.0629 13.894 12.1829 13.7741 12.3257 13.7741H23.6686C23.8114 13.7741 23.9314 13.894 23.9314 14.0368V15.0826Z" fill="#00162E"/>
</g>
</svg>
