<svg width="20" height="20" viewBox="0 0 20 20" fill="none" xmlns="http://www.w3.org/2000/svg">
<rect width="20" height="20" fill="white" fill-opacity="0.01"/>
<mask id="mask0" mask-type="alpha" maskUnits="userSpaceOnUse" x="1" y="1" width="18" height="18">
<path fill-rule="evenodd" clip-rule="evenodd" d="M5.00033 4.99996H6.66699V4.16663H13.3337V4.99996H15.0003V4.16663H16.667V6.66663H3.33366V4.16663H5.00033V4.99996ZM3.33366 8.33329V16.6666H16.667V8.33329H3.33366ZM6.66699 2.49996H13.3337V1.66663H15.0003V2.49996H16.667C17.5875 2.49996 18.3337 3.24615 18.3337 4.16663V16.6666C18.3337 17.5871 17.5875 18.3333 16.667 18.3333H3.33366C2.41318 18.3333 1.66699 17.5871 1.66699 16.6666V4.16663C1.66699 3.24615 2.41318 2.49996 3.33366 2.49996H5.00033V1.66663H6.66699V2.49996Z" fill="white"/>
</mask>
<g mask="url(#mask0)">
<rect width="20" height="20" fill="black"/>
</g>
</svg>
