<svg width="14" height="14" viewBox="0 0 14 14" fill="none" xmlns="http://www.w3.org/2000/svg">
<path d="M6.99967 1.91671C7.96634 1.91671 8.74967 2.70004 8.74967 3.66671C8.74967 4.63337 7.96634 5.41671 6.99967 5.41671C6.03301 5.41671 5.24967 4.63337 5.24967 3.66671C5.24967 2.70004 6.03301 1.91671 6.99967 1.91671ZM6.99967 9.41671C9.47884 9.41671 12.083 10.6292 12.083 11.1667V12.0834H1.91634V11.1667C1.91634 10.6292 4.52051 9.41671 6.99967 9.41671ZM6.99967 0.333374C5.15801 0.333374 3.66634 1.82504 3.66634 3.66671C3.66634 5.50421 5.15801 7.00004 6.99967 7.00004C8.84134 7.00004 10.333 5.50421 10.333 3.66671C10.333 1.82504 8.84134 0.333374 6.99967 0.333374ZM6.99967 7.83337C4.77884 7.83337 0.333008 8.94587 0.333008 11.1667V13.6667H13.6663V11.1667C13.6663 8.94587 9.22051 7.83337 6.99967 7.83337Z" fill="#111111"/>
</svg>
