<svg width="8" height="8" viewBox="0 0 8 8" fill="none" xmlns="http://www.w3.org/2000/svg">
<path d="M7.01942 3.42966L1.67142 0.187996C1.57031 0.126762 1.45473 0.0935154 1.33653 0.091665C1.21833 0.0898145 1.10176 0.119426 0.998777 0.177465C0.895793 0.235505 0.810093 0.319884 0.750461 0.421954C0.690829 0.524025 0.65941 0.640116 0.659424 0.75833V7.24166C0.659374 7.35993 0.690784 7.47608 0.750433 7.57819C0.810082 7.68031 0.895823 7.76473 0.998859 7.82277C1.1019 7.88082 1.21852 7.91042 1.33677 7.90853C1.45502 7.90663 1.57063 7.87332 1.67176 7.812L7.01942 4.57033C7.11754 4.51094 7.19867 4.42725 7.25499 4.32734C7.3113 4.22743 7.34089 4.11468 7.34089 4C7.34089 3.88531 7.3113 3.77256 7.25499 3.67265C7.19867 3.57274 7.11754 3.48905 7.01942 3.42966Z" fill="white"/>
</svg>
