<svg width="110" height="110" viewBox="0 0 110 110" fill="none" xmlns="http://www.w3.org/2000/svg">
<g filter="url(#filter0_d)">
<path fill-rule="evenodd" clip-rule="evenodd" d="M55 101C82.6142 101 105 78.6142 105 51C105 23.3858 82.6142 1 55 1C27.3858 1 5 23.3858 5 51C5 78.6142 27.3858 101 55 101ZM44.9686 36.7833L73.7705 49.9083C74.3849 50.2083 74.9993 50.5083 74.9993 51.3333C74.9993 52.1583 74.3849 52.4583 73.7705 52.7583L44.9686 65.8833C44.8246 65.9436 44.7026 66.0039 44.5893 66.0599C44.2799 66.2127 44.0359 66.3333 43.5861 66.3333C42.7413 66.3333 41.666 65.8083 41.666 64.8333V37.8333C41.666 36.8583 42.7413 36.3333 43.5861 36.3333C44.0359 36.3333 44.2799 36.4539 44.5893 36.6068C44.7026 36.6627 44.8246 36.723 44.9686 36.7833Z" fill="white" fill-opacity="0.8"/>
<path d="M73.7705 49.9083L73.9899 49.4588L73.9778 49.4533L73.7705 49.9083ZM44.9686 36.7833L45.176 36.3283L45.1689 36.3251L45.1617 36.3221L44.9686 36.7833ZM73.7705 52.7583L73.9779 53.2135L73.9898 53.2076L73.7705 52.7583ZM44.9686 65.8833L45.1617 66.3446L45.1689 66.3415L45.176 66.3383L44.9686 65.8833ZM44.5893 66.0599L44.8108 66.5081L44.8108 66.5081L44.5893 66.0599ZM44.5893 36.6068L44.8108 36.1585L44.8108 36.1585L44.5893 36.6068ZM104.5 51C104.5 78.3381 82.3381 100.5 55 100.5V101.5C82.8904 101.5 105.5 78.8904 105.5 51H104.5ZM55 1.5C82.3381 1.5 104.5 23.6619 104.5 51H105.5C105.5 23.1096 82.8904 0.5 55 0.5V1.5ZM5.5 51C5.5 23.6619 27.6619 1.5 55 1.5V0.5C27.1096 0.5 4.5 23.1096 4.5 51H5.5ZM55 100.5C27.6619 100.5 5.5 78.3381 5.5 51H4.5C4.5 78.8904 27.1096 101.5 55 101.5V100.5ZM73.9778 49.4533L45.176 36.3283L44.7613 37.2383L73.5631 50.3633L73.9778 49.4533ZM75.4993 51.3333C75.4993 50.7718 75.2804 50.3615 74.957 50.0589C74.6615 49.7824 74.2811 49.6012 73.9898 49.459L73.5511 50.3576C73.8743 50.5154 74.1083 50.6342 74.2737 50.789C74.4111 50.9176 74.4993 51.0698 74.4993 51.3333H75.4993ZM73.9898 53.2076C74.2811 53.0654 74.6615 52.8842 74.957 52.6078C75.2804 52.3051 75.4993 51.8948 75.4993 51.3333H74.4993C74.4993 51.5968 74.4111 51.749 74.2737 51.8776C74.1083 52.0324 73.8743 52.1512 73.5511 52.309L73.9898 53.2076ZM45.176 66.3383L73.9778 53.2133L73.5631 52.3033L44.7613 65.4283L45.176 66.3383ZM44.8108 66.5081C44.9247 66.4518 45.0338 66.3981 45.1617 66.3446L44.7756 65.4221C44.6153 65.4892 44.4804 65.5559 44.3678 65.6116L44.8108 66.5081ZM43.5861 66.8333C44.1565 66.8333 44.4872 66.668 44.8108 66.5081L44.3678 65.6116C44.0727 65.7574 43.9153 65.8333 43.5861 65.8333V66.8333ZM41.166 64.8333C41.166 65.5302 41.5575 66.0443 42.0292 66.3632C42.493 66.6767 43.0723 66.8333 43.5861 66.8333V65.8333C43.2552 65.8333 42.8744 65.7274 42.5893 65.5347C42.3121 65.3474 42.166 65.1115 42.166 64.8333H41.166ZM41.166 37.8333V64.8333H42.166V37.8333H41.166ZM43.5861 35.8333C43.0723 35.8333 42.493 35.9899 42.0292 36.3035C41.5575 36.6224 41.166 37.1365 41.166 37.8333H42.166C42.166 37.5552 42.3121 37.3193 42.5893 37.1319C42.8744 36.9392 43.2552 36.8333 43.5861 36.8333V35.8333ZM44.8108 36.1585C44.4872 35.9986 44.1565 35.8333 43.5861 35.8333V36.8333C43.9153 36.8333 44.0727 36.9092 44.3678 37.055L44.8108 36.1585ZM45.1617 36.3221C45.0338 36.2686 44.9247 36.2148 44.8108 36.1585L44.3678 37.055C44.4804 37.1107 44.6153 37.1775 44.7756 37.2446L45.1617 36.3221Z" fill="white"/>
</g>
<defs>
<filter id="filter0_d" x="0.5" y="0.5" width="109" height="109" filterUnits="userSpaceOnUse" color-interpolation-filters="sRGB">
<feFlood flood-opacity="0" result="BackgroundImageFix"/>
<feColorMatrix in="SourceAlpha" type="matrix" values="0 0 0 0 0 0 0 0 0 0 0 0 0 0 0 0 0 0 127 0"/>
<feOffset dy="4"/>
<feGaussianBlur stdDeviation="2"/>
<feColorMatrix type="matrix" values="0 0 0 0 0 0 0 0 0 0 0 0 0 0 0 0 0 0 0.1 0"/>
<feBlend mode="normal" in2="BackgroundImageFix" result="effect1_dropShadow"/>
<feBlend mode="normal" in="SourceGraphic" in2="effect1_dropShadow" result="shape"/>
</filter>
</defs>
</svg>
