<svg width="27" height="19" viewBox="0 0 27 19" fill="none" xmlns="http://www.w3.org/2000/svg">
<path fill-rule="evenodd" clip-rule="evenodd" d="M23.7549 6.02643C23.7368 6.00492 23.722 5.98549 23.7019 5.96398L22.8156 5.04526C23.5501 4.86624 24.3428 4.20218 24.3428 3.52424C24.3428 2.73043 23.3208 2.45079 22.4473 2.45079C21.5364 2.45079 21.4305 3.12317 21.4175 3.5978L19.1286 1.22606C18.6648 0.732704 17.781 0.342041 17.1227 0.342041H8.20148C7.54317 0.342041 6.66003 0.732704 6.19553 1.22606L3.90661 3.5978C3.89369 3.12317 3.78773 2.45079 2.87682 2.45079C2.00143 2.45079 0.979397 2.73043 0.979397 3.52424C0.979397 4.20218 1.77144 4.86624 2.50857 5.04526L1.62027 5.96398C1.60024 5.98549 1.58732 6.00492 1.56988 6.02643C0.620845 6.89935 0 8.51474 0 9.68812V13.1742C0 14.0194 0.310099 14.7869 0.812719 15.3586V16.711C0.812719 17.5028 1.4284 18.1453 2.18555 18.1453H3.84846C4.60562 18.1453 5.2213 17.5028 5.2213 16.711V16.3641H20.1028V16.711C20.1028 17.5028 20.7185 18.1453 21.4757 18.1453H23.136C23.8957 18.1453 24.5114 17.5028 24.5114 16.711V15.3586C25.014 14.7869 25.3241 14.0194 25.3241 13.1742V9.68812C25.3241 8.51474 24.7033 6.89935 23.7549 6.02643ZM7.03603 2.28009C7.35905 1.99004 7.92175 1.77355 8.20148 1.77355H17.1227C17.403 1.77355 17.9657 1.99004 18.2888 2.28009L21.2916 5.40539H4.03258L7.03603 2.28009ZM1.02979 9.15937C1.02979 8.30033 1.65516 7.60365 2.42782 7.60365C3.19984 7.60365 5.72069 9.19476 5.72069 10.0538C5.72069 10.9108 3.19984 10.713 2.42782 10.713C1.65516 10.713 1.02979 10.0191 1.02979 9.15937ZM5.2213 14.8354H4.68896L3.10875 14.8382C2.67267 14.6918 2.36192 14.5211 2.14485 14.3365C2.03374 14.2449 1.94846 14.1499 1.88256 14.052C1.81473 13.957 1.76627 13.8598 1.73656 13.7648C1.53951 13.1687 1.94587 12.6212 1.94587 12.6212H4.63857L6.43521 14.8354H5.2213ZM16.5373 14.8382H8.78744C7.97989 14.8382 7.32351 14.1332 7.32351 13.2658H18.0006C18.0006 14.1332 17.3449 14.8382 16.5373 14.8382ZM16.8778 12.1931H8.44633C7.56836 12.1931 6.85384 11.0301 6.85384 9.59583H18.4677C18.4677 11.0301 17.7558 12.1931 16.8778 12.1931ZM23.5882 13.7648C23.5579 13.8598 23.5075 13.957 23.4416 14.052C23.3763 14.1499 23.2904 14.2449 23.1793 14.3393C22.9622 14.5211 22.6515 14.6946 22.2154 14.841L20.6352 14.8382H18.8863L20.6836 12.6212H23.3789C23.3789 12.6212 23.7846 13.1687 23.5882 13.7648ZM22.8963 10.713C22.1243 10.713 19.6035 10.9108 19.6035 10.0538C19.6035 9.19476 22.1243 7.60365 22.8963 7.60365C23.669 7.60365 24.2943 8.30033 24.2943 9.15937C24.2943 10.0191 23.669 10.713 22.8963 10.713Z" fill="white"/>
</svg>
