<svg width="39" height="42" viewBox="0 0 39 42" fill="none" xmlns="http://www.w3.org/2000/svg">
<path d="M9.165 21.8824L3 34.4999L9.25 33.2499L13 38.2499L18.2425 26.9599" stroke="#2E71F2" stroke-width="3" stroke-miterlimit="10"/>
<path d="M29.3353 21.8824L35.5003 34.4999L29.2503 33.2499L25.5003 38.2499L20.2578 26.9599" stroke="#2E71F2" stroke-width="3" stroke-miterlimit="10"/>
<path d="M19.25 27C26.1536 27 31.75 21.4036 31.75 14.5C31.75 7.59644 26.1536 2 19.25 2C12.3464 2 6.75 7.59644 6.75 14.5C6.75 21.4036 12.3464 27 19.25 27Z" stroke="#2E71F2" stroke-width="3" stroke-miterlimit="10" stroke-linecap="square"/>
<path d="M19.25 19.5C22.0114 19.5 24.25 17.2614 24.25 14.5C24.25 11.7386 22.0114 9.5 19.25 9.5C16.4886 9.5 14.25 11.7386 14.25 14.5C14.25 17.2614 16.4886 19.5 19.25 19.5Z" stroke="#2E71F2" stroke-width="3" stroke-miterlimit="10" stroke-linecap="square"/>
</svg>
